<svg width="25" height="14" viewBox="0 0 25 14" fill="none" xmlns="http://www.w3.org/2000/svg">
<path fill-rule="evenodd" clip-rule="evenodd" d="M23.95 0.948C24.116 0.402 23.95 0 23.155 0H20.53C19.862 0 19.554 0.347 19.387 0.73C19.387 0.73 18.052 3.926 16.161 6.002C15.549 6.604 15.271 6.795 14.937 6.795C14.77 6.795 14.519 6.604 14.519 6.057V0.948C14.519 0.292 14.335 0 13.779 0H9.651C9.234 0 8.983 0.304 8.983 0.593C8.983 1.214 9.929 1.358 10.026 3.106V6.904C10.026 7.737 9.873 7.888 9.539 7.888C8.649 7.888 6.484 4.677 5.199 1.003C4.95 0.288 4.698 0 4.027 0H1.4C0.65 0 0.5 0.347 0.5 0.73C0.5 1.412 1.39 4.8 4.645 9.281C6.815 12.341 9.87 14 12.653 14C14.322 14 14.528 13.632 14.528 12.997V10.684C14.528 9.947 14.686 9.8 15.215 9.8C15.605 9.8 16.272 9.992 17.83 11.467C19.61 13.216 19.903 14 20.905 14H23.53C24.28 14 24.656 13.632 24.44 12.904C24.202 12.18 23.352 11.129 22.225 9.882C21.613 9.172 20.695 8.407 20.416 8.024C20.027 7.533 20.138 7.314 20.416 6.877C20.416 6.877 23.616 2.451 23.949 0.948H23.95Z" fill="white"/>
</svg>
