<!-- <svg xmlns="http://www.w3.org/2000/svg">

  <style>:root svg:not(:target) { display: none}</style>

<svg id="tg-icon" viewBox="0 0 24 24">
<path d="M22.4393 4.62225L19.2705 19.566C19.0313 20.6205 18.408 20.883 17.5223 20.3865L12.6938 16.8285L10.3643 19.0695C10.1063 19.3275 9.891 19.5428 9.39375 19.5428L9.741 14.6258L18.6893 6.54C19.0785 6.1935 18.6045 6.00075 18.0848 6.348L7.02225 13.314L2.25976 11.823C1.22401 11.4998 1.20526 10.7873 2.47576 10.29L21.1035 3.11325C21.966 2.79 22.7205 3.30525 22.4393 4.623V4.62225Z" fill="white"/>
</svg>


</svg> -->

<svg xmlns="http://www.w3.org/2000/svg">
<style>:root svg:not(:target) { display: none}</style>
<symbol id="intro-sedona" width="229" height="39" viewBox="0 0 229 39" fill="none">
<path d="M27.3156 26.6366C27.3156 26.8879 27.2655 27.0889 27.2655 27.2899C27.0149 29.3003 26.3633 31.2603 25.3108 33.0696C24.2583 34.8789 22.8048 36.2861 21.0506 37.2912C20.399 37.5928 19.6973 37.8441 18.9956 38.0954C18.2939 38.2964 17.5923 38.4974 16.8906 38.6482C16.2891 38.7487 15.7378 38.8492 15.1364 38.8995C14.5349 38.9497 13.9836 39 13.4323 39C13.332 39 13.2318 39 13.1315 39C13.0313 39 12.9311 39 12.8308 39C10.5253 38.8995 8.21974 38.3969 5.96432 37.442C3.75903 36.4369 1.75421 35.1804 0 33.5722L4.6612 26.0838C4.71132 26.134 4.71132 26.134 4.76144 26.1843C4.76144 26.1843 4.81156 26.2345 4.86168 26.2848C5.9142 27.4407 7.11709 28.5464 8.42022 29.5013C9.72335 30.4562 11.2771 31.009 12.9812 31.1095C13.0313 31.1095 13.0814 31.1095 13.1315 31.1598C13.1817 31.1598 13.2318 31.2101 13.2819 31.2101C13.332 31.2101 13.3821 31.2101 13.4323 31.2603C13.4824 31.2603 13.5325 31.3106 13.5826 31.3106C13.733 31.3106 13.8833 31.3106 14.0838 31.2603C14.2342 31.2603 14.4347 31.2101 14.585 31.1598C15.1865 31.0593 15.7879 30.808 16.3392 30.4562C16.8906 30.1044 17.3417 29.7023 17.6424 29.1495C17.6925 29.049 17.7426 28.9987 17.7426 28.8982C17.7927 28.7977 17.8429 28.7474 17.8429 28.6469C17.9431 28.3956 17.9932 28.1443 17.9932 27.893C18.0433 27.6418 18.0433 27.4407 18.0433 27.2397C18.0433 26.1843 17.5923 25.2796 16.6901 24.576C15.7879 23.8724 14.7855 23.3196 13.733 22.9175C13.2819 22.7668 12.8809 22.616 12.5301 22.5155C12.1291 22.4149 11.7783 22.3144 11.4274 22.2642C11.3773 22.2642 11.3272 22.2642 11.3272 22.2139C11.2771 22.2139 11.227 22.1637 11.227 22.1637C9.32239 21.7113 7.51806 20.9575 5.86408 19.9021C4.21011 18.8466 3.05734 17.3892 2.40578 15.4291C2.30554 15.0271 2.2053 14.625 2.10506 14.2229C2.00482 13.7706 1.95469 13.3686 1.90457 12.866C1.85445 12.7152 1.85445 12.5644 1.85445 12.4137C1.85445 12.2629 1.85445 12.1121 1.85445 11.9613C1.85445 11.6598 1.85445 11.3582 1.90457 11.0064C1.90457 10.7049 1.95469 10.4033 2.05494 10.0515C2.15518 9.29768 2.35566 8.49356 2.65638 7.73969C2.90698 6.98582 3.25782 6.28222 3.70891 5.62887C4.96192 3.5683 6.56577 2.11082 8.52046 1.20619C10.3749 0.45232 12.4299 0 14.5349 0C15.0361 0 15.5373 0.0502577 16.0886 0.100515C16.5898 0.150773 17.1412 0.251289 17.6925 0.301546C19.0959 0.552835 20.4992 0.904639 21.8525 1.45747C23.2057 2.01031 24.5089 2.66366 25.6616 3.36727L22.4539 10.5541C21.4014 9.80026 20.2988 9.09665 19.146 8.49356C17.9932 7.89046 16.7402 7.63917 15.387 7.63917C15.2867 7.63917 15.2366 7.63917 15.1364 7.63917C15.0361 7.63917 14.986 7.63917 14.8858 7.63917C13.9836 7.73969 13.1817 8.14175 12.3797 8.84536C11.6279 9.54897 11.227 10.2526 11.227 11.0567C11.227 11.1572 11.227 11.308 11.2771 11.4085C11.2771 11.509 11.3272 11.6598 11.4274 11.7603C11.5277 12.0116 11.6279 12.2629 11.8284 12.5142C12.0289 12.7655 12.2294 12.9665 12.48 13.1675C12.9311 13.5193 13.5325 13.8209 14.3344 14.1224C15.1364 14.424 15.9884 14.6753 16.8906 14.9768C17.6424 15.1778 18.3441 15.3789 19.0457 15.5296C19.7474 15.6804 20.3489 15.8814 20.8 16.0322C22.9551 16.7861 24.6091 18.0928 25.7118 19.9021C26.8144 21.7113 27.3657 23.6211 27.4158 25.6314C27.4158 25.732 27.4158 25.7822 27.4158 25.7822C27.4158 25.8325 27.4158 25.8827 27.4158 25.8827C27.3657 26.134 27.3657 26.3853 27.3156 26.6366ZM57.3878 29.7526V38.0954H34.6332V0.904639H57.3878V9.04639H44.6071V15.5296H56.636V23.4704H44.6071V29.7526H57.3878ZM95.78 28.2951C94.5772 30.8582 92.8731 32.9691 90.6176 34.5773C88.8133 35.8338 86.8085 36.6881 84.7034 37.1405C82.5483 37.5928 80.3931 37.8943 78.2379 37.9948C77.6365 38.0451 76.9849 38.0451 76.3835 38.0451C75.782 38.0451 75.1806 38.0451 74.6292 38.0451H64.4548V0.854381H75.2808C75.8822 0.854381 76.4336 0.854381 77.035 0.854381C77.6365 0.854381 78.2379 0.854381 78.7892 0.904639C80.8943 1.00515 82.9492 1.3067 85.0042 1.75902C87.0591 2.21134 88.9136 3.06572 90.6176 4.32217C92.7728 5.8299 94.4769 7.84021 95.6798 10.3531C96.8827 12.866 97.5844 15.4291 97.7347 18.0425C97.7849 18.2938 97.7849 18.4948 97.7849 18.7461C97.7849 18.9974 97.7849 19.1985 97.7849 19.4497C97.7849 19.5503 97.7849 19.701 97.7849 19.8518C97.7849 20.0026 97.7849 20.1031 97.7849 20.2539C97.6345 23.0683 96.9829 25.732 95.78 28.2951ZM87.5603 19.0979C87.5603 18.9472 87.5603 18.7964 87.5102 18.6456C87.4099 17.1881 87.0591 15.7307 86.4576 14.3737C85.8562 13.0168 85.0042 11.9111 83.9015 11.0567C83.0996 10.4033 82.1974 9.95103 81.195 9.69974C80.1926 9.44845 79.1902 9.34794 78.1377 9.29768C77.9372 9.29768 77.7367 9.29768 77.5362 9.29768C77.3357 9.29768 77.1353 9.29768 76.9348 9.29768H74.3786V29.8028C74.4789 29.8028 74.6292 29.8028 74.7796 29.8531C74.93 29.8531 75.0302 29.9033 75.1806 29.9033C75.3309 29.9033 75.4813 29.9033 75.5815 29.9536C75.6818 29.9536 75.8321 30.0039 75.9324 30.0039C76.3333 30.0039 76.7343 30.0039 77.1353 29.9536C77.5863 29.9536 77.9873 29.9034 78.3382 29.8531C79.3406 29.7526 80.343 29.6018 81.2952 29.3505C82.2475 29.0992 83.1497 28.6469 83.9015 28.1443C85.1545 27.2397 86.0567 26.0335 86.6581 24.4755C87.2596 22.9175 87.5603 21.3093 87.5603 19.6508C87.5603 19.3995 87.5603 19.2487 87.5603 19.0979ZM142.492 21.058C142.492 21.4601 142.442 21.8621 142.342 22.2642C142.242 23.0683 142.141 23.8724 141.891 24.6765C141.69 25.4807 141.39 26.2848 141.089 27.0387C139.435 30.808 136.929 33.7229 133.471 35.8338C130.012 37.8943 126.404 38.9497 122.594 38.9497C122.344 38.9497 122.043 38.9497 121.793 38.8995C121.542 38.8995 121.291 38.8492 120.991 38.8492C119.687 38.7487 118.384 38.4974 117.081 38.1456C115.778 37.7938 114.525 37.2912 113.322 36.6881C110.064 34.9794 107.508 32.5168 105.654 29.3505C103.799 26.1843 102.847 22.8673 102.847 19.4497C102.847 18.9472 102.847 18.4446 102.897 17.942C102.947 17.4394 102.997 16.8866 103.148 16.384C103.348 15.3789 103.599 14.3737 103.95 13.3183C104.3 12.3131 104.701 11.308 105.253 10.3531C107.057 7.03608 109.513 4.5232 112.721 2.76418C115.878 1.00515 119.236 0.150773 122.695 0.150773C123.146 0.150773 123.647 0.150773 124.098 0.201031C124.599 0.251289 125.05 0.301546 125.501 0.301546C126.955 0.502577 128.358 0.854381 129.762 1.35696C131.165 1.85954 132.518 2.51289 133.821 3.31701C136.578 5.12629 138.733 7.4884 140.237 10.4536C141.74 13.4188 142.492 16.5348 142.492 19.7513C142.492 20.2539 142.492 20.6559 142.492 21.058ZM132.368 18.9472C132.368 18.6959 132.318 18.4948 132.318 18.2436C132.117 16.5851 131.616 14.9768 130.814 13.4188C130.012 11.8608 128.859 10.6546 127.456 9.80026C127.055 9.59923 126.704 9.44845 126.303 9.29768C125.902 9.14691 125.552 8.99613 125.151 8.89562C124.75 8.7951 124.399 8.74484 123.998 8.69459C123.597 8.64433 123.246 8.59407 122.845 8.59407C120.89 8.59407 119.036 9.19716 117.382 10.4536C115.728 11.7101 114.525 13.3686 113.873 15.4291C113.823 15.5296 113.823 15.5799 113.773 15.6804C113.773 15.7809 113.723 15.8312 113.723 15.9317C113.623 16.2835 113.523 16.6353 113.422 16.9871C113.322 17.3389 113.272 17.741 113.172 18.143C113.122 18.3943 113.122 18.6959 113.072 18.9472C113.072 19.1985 113.021 19.4497 113.021 19.7513C113.021 19.9021 113.021 20.0528 113.021 20.2036C113.021 20.3544 113.021 20.5052 113.072 20.6559C113.172 22.7165 113.823 24.6765 114.976 26.5361C116.129 28.3956 117.683 29.6018 119.738 30.2049C119.988 30.3054 120.189 30.3557 120.439 30.4059C120.69 30.4562 120.94 30.5064 121.191 30.5567C121.442 30.607 121.642 30.607 121.893 30.6572C122.143 30.6572 122.344 30.7075 122.594 30.7075C124.649 30.7075 126.504 30.1044 128.158 28.8479C129.812 27.6418 131.015 25.9832 131.716 23.9227C131.817 23.5206 131.917 23.1186 132.017 22.7165C132.117 22.2642 132.167 21.8621 132.218 21.4098C132.268 21.1585 132.268 20.857 132.318 20.6057C132.318 20.3544 132.368 20.1031 132.368 19.8518C132.368 19.4497 132.368 19.1985 132.368 18.9472ZM176.223 38.0954L162.139 18.8969C161.738 18.4446 161.388 17.8918 161.037 17.2384C160.686 16.5851 160.335 15.9317 160.034 15.2281C159.784 14.7255 159.583 14.2229 159.383 13.7204C159.182 13.2178 158.982 12.7655 158.781 12.3634C158.982 13.5696 159.132 14.7758 159.232 16.0322C159.333 17.2887 159.383 18.5451 159.383 19.7513V38.0954H149.609V0.904639H159.383L173.366 20.0026C173.717 20.5554 174.068 21.1082 174.369 21.7113C174.72 22.3144 175.02 22.9175 175.321 23.5709C175.572 24.0735 175.772 24.576 176.023 25.0786C176.273 25.5812 176.474 26.0838 176.724 26.5361C176.674 26.0838 176.624 25.6817 176.574 25.3299C176.524 24.9278 176.474 24.5258 176.424 24.1237C176.323 23.3698 176.273 22.5657 176.273 21.7113C176.223 20.9072 176.223 20.0528 176.223 19.1985V0.954897H185.947V38.1456H176.223V38.0954ZM218.876 38.0954L217.021 31.4111H202.687L200.782 38.1456H190.758L203.489 0.954897H216.119L229 38.1456H218.876V38.0954ZM211.107 11.9111C210.907 11.308 210.706 10.7049 210.556 10.0515C210.405 9.3982 210.255 8.7951 210.105 8.14175C210.004 7.89046 209.954 7.68943 209.954 7.4884C209.904 7.28737 209.854 7.08634 209.854 6.88531C209.804 7.08634 209.754 7.28737 209.704 7.4884C209.654 7.68943 209.603 7.94072 209.553 8.14175C209.503 8.24227 209.503 8.29253 209.503 8.34278C209.503 8.39304 209.503 8.49356 209.453 8.54381C209.353 9.14691 209.202 9.69974 209.052 10.2526C208.902 10.8054 208.751 11.3582 208.601 11.9111L204.842 24.2242H214.916L211.107 11.9111Z" fill="white"/>
</symbol>

<symbol id="intro-slogan" width="282" height="214" viewBox="0 0 282 214" fill="none">
<path d="M101.385 42.8044L101.262 42.9267C100.403 43.844 99.4211 44.272 98.5006 44.272L100.219 41.2757C101.324 39.3801 100.28 37.5456 98.5619 37.5456C97.1504 37.5456 96.0457 38.096 95.0024 39.9304L94.0819 41.5203L93.3454 42.8044L93.2227 42.9267C91.8725 44.4555 90.5837 45.6785 89.7859 45.6785C89.3563 45.6785 89.1722 45.3727 89.6018 44.7001L93.5295 37.8514H95.0024L95.5548 36.9953H94.0205L95.7389 33.999H93.8977L92.1793 36.9953H90.5223L89.97 37.8514H91.627L87.9447 44.2109C87.1469 45.5562 87.6993 46.8403 89.1722 46.8403C90.2155 46.8403 91.4429 46.0454 92.5476 44.9447C92.5476 47.2683 95.8002 47.7575 97.7641 45.2504H98.1937C99.2984 45.2504 101.017 44.5778 101.937 43.4771C101.937 43.1713 101.63 42.9267 101.385 42.8044ZM97.4573 42.9267H97.3959C96.7822 42.9267 96.2912 43.4159 96.2912 44.0274C96.2912 44.272 96.3526 44.4555 96.4753 44.6389V44.7001C95.6161 46.1677 93.5295 45.9231 94.5728 43.9663L95.9844 41.5815L96.8436 40.1139C98.1323 37.9125 99.9121 38.7686 98.8074 40.6642L97.4573 42.9267Z" fill="#766458"/>
<path d="M126.854 42.8042L126.731 42.9265C125.381 44.4552 123.724 45.6782 122.435 45.6782C121.331 45.6782 120.656 44.9444 121.453 43.4768L121.637 43.1711C122.803 43.6603 125.074 43.4157 126.424 41.0309L126.67 40.6028C127.652 38.8907 126.731 37.6677 125.197 37.6677C123.724 37.6677 122.558 38.4626 121.76 39.8079L119.98 42.8654L119.858 42.9877C118.508 44.5164 117.219 45.7394 116.421 45.7394C115.991 45.7394 115.807 45.4336 116.237 44.761L118.876 40.1136C119.674 38.7072 118.937 37.7288 117.894 37.7288C117.096 37.7288 116.237 38.1569 115.316 39.1353L118.262 34.0599H116.421L111.327 42.8042L111.204 42.9265C109.854 44.4552 108.565 45.6782 107.768 45.6782C107.338 45.6782 107.154 45.3725 107.583 44.6998L111.511 37.8511H112.984L113.536 36.995H112.002L113.721 33.9987H111.879L110.161 36.995H108.504L107.952 37.8511H109.609L105.926 44.2106C105.129 45.5559 105.681 46.8401 107.154 46.8401C107.89 46.8401 108.688 46.4732 109.486 45.8617L108.995 46.6566H110.836L113.598 41.8258C116.421 38.2792 117.648 38.7684 116.912 40.1136L114.518 44.2718C113.721 45.6171 114.273 46.9012 115.746 46.9012C116.851 46.9012 118.078 46.0451 119.183 44.9444C119.244 46.1063 120.226 46.9012 121.699 46.9012C123.785 46.9012 125.872 45.3113 127.345 43.538C127.406 43.1711 127.099 42.9265 126.854 42.8042ZM123.356 40.2359C124.399 38.4015 126.302 38.7072 125.197 40.6028L124.951 41.0309C124.092 42.4985 122.865 42.4985 122.19 42.2539L123.356 40.2359Z" fill="#766458"/>
<path d="M193.81 42.8044L193.687 42.9267C193.012 43.7217 192.214 44.3943 191.478 44.9446C192.091 43.1713 191.907 40.5419 193.073 38.1571L191.723 37.4233C190.987 38.4628 189.33 40.8476 187.611 42.8044L187.488 42.9267C186.138 44.4554 184.849 45.6784 184.052 45.6784C183.622 45.6784 183.438 45.3727 183.868 44.7L187.795 37.8513H185.954L182.701 43.5382C181.29 44.8223 180.247 45.495 179.878 45.3727C179.449 45.1892 179.878 44.5166 180.124 44.0886L183.683 37.8513H181.842L178.958 42.8044L178.835 42.9267C177.976 43.844 176.994 44.272 176.073 44.272L177.792 41.2757C178.896 39.3801 177.853 37.5456 176.135 37.5456C174.723 37.5456 173.619 38.0959 172.575 39.9304L171.655 41.5203L170.918 42.8044L170.796 42.9267C169.445 44.4554 167.788 45.6784 166.5 45.6784C165.395 45.6784 164.72 44.9446 165.518 43.4771L165.702 43.1713C166.868 43.6605 169.138 43.4159 170.489 41.0311L170.734 40.6031C171.716 38.8909 170.796 37.6679 169.261 37.6679C167.788 37.6679 166.622 38.4628 165.824 39.8081L164.045 42.8656L163.922 42.9879C162.388 44.7612 161.099 45.8619 159.626 46.4734L163.738 39.4412H162.633C162.633 38.7074 161.835 37.6679 160.731 37.6679C159.749 37.6679 158.337 38.4628 157.601 39.8081L155.821 42.8656L155.698 42.9879C154.348 44.5166 153.059 45.7396 152.261 45.7396C151.832 45.7396 151.648 45.4338 152.077 44.7612L153.918 41.5814C154.532 40.4808 154.225 39.8081 153.673 39.0743L152.63 37.8513C152.384 37.5456 152.384 37.1175 152.752 36.8118L151.77 35.7723C150.727 36.6895 150.666 37.729 151.28 38.5851L151.464 38.7686C150.666 39.9304 149.561 41.4591 148.334 42.8656L148.211 42.9879C147.352 43.9051 146.37 44.3332 145.449 44.3332L147.168 41.3368C148.272 39.4412 147.229 37.6067 145.511 37.6067C144.099 37.6067 142.994 38.1571 141.951 39.9916L141.031 41.5814L140.294 42.8656L140.171 42.9879C138.637 44.7612 137.348 45.8619 135.875 46.4734L139.987 39.4412H138.883C138.883 38.7074 138.085 37.6679 136.98 37.6679C135.998 37.6679 134.587 38.4628 133.85 39.8081L131.273 44.272C130.475 45.6173 131.027 46.9014 132.5 46.9014C132.991 46.9014 133.605 46.6568 134.28 46.2899L133.789 47.146C131.334 47.8798 129.738 48.9193 129.738 50.2646C129.738 52.038 132.439 52.4048 133.789 50.1423L135.2 47.7575C136.673 47.3295 138.085 46.4122 139.619 45.0058C139.619 47.3295 142.872 47.8187 144.836 45.3115H145.265C146.37 45.3115 148.088 44.6389 149.009 43.5382C149.868 42.4987 150.604 41.5814 152.077 39.6247L152.323 39.9304C152.568 40.2362 152.63 40.6031 152.446 40.9699L150.482 44.3332C149.684 45.6784 150.236 46.9626 151.709 46.9626C152.63 46.9626 153.673 46.3511 154.655 45.495C154.655 46.3511 155.207 46.9626 156.251 46.9626C156.742 46.9626 157.355 46.718 158.03 46.3511L157.601 47.0849C155.146 47.8187 153.55 48.8582 153.55 50.2035C153.55 51.9768 156.251 52.3437 157.601 50.0812L159.012 47.6964C160.485 47.2072 161.958 46.3511 163.492 44.8835C163.554 46.0453 164.474 46.8403 166.009 46.8403C167.481 46.8403 169.016 45.9842 170.243 44.8835C170.182 47.2683 173.496 47.7575 175.46 45.2504H175.889C176.442 45.2504 177.239 45.0669 177.915 44.7C177.424 45.9842 177.853 46.8403 178.896 46.8403C179.878 46.8403 181.044 45.923 181.904 45.0669C181.72 46.0453 182.333 46.8403 183.499 46.8403C185.034 46.8403 186.752 45.2504 188.286 43.4771C189.33 42.2541 190.25 40.9699 190.925 40.1139C190.189 42.0095 190.618 45.4338 188.839 45.4338C188.225 45.4338 187.979 44.7612 187.979 44.7612L186.813 45.3727C186.813 45.3727 187.12 46.8403 188.839 46.8403C189.023 46.8403 189.145 46.8403 189.33 46.7791H189.391C191.293 46.5345 193.135 45.0669 194.485 43.4771C194.423 43.1713 194.117 42.8656 193.81 42.8044ZM167.481 40.2362C168.525 38.4017 170.427 38.7074 169.323 40.6031L169.077 41.0311C168.218 42.4987 166.991 42.4987 166.315 42.2541L167.481 40.2362ZM132.377 49.7754C132.009 50.4481 131.395 50.3869 131.395 49.8366C131.395 49.3474 131.825 48.797 133.236 48.2467L132.377 49.7754ZM133.236 45.6784C132.807 45.6784 132.623 45.3727 133.052 44.7L135.63 40.2362C136.612 38.524 138.576 38.952 137.655 40.6031L136.244 43.049C135.139 44.8223 133.973 45.6784 133.236 45.6784ZM144.529 42.9267H144.467C143.854 42.9267 143.363 43.4159 143.363 44.0274C143.363 44.272 143.424 44.4555 143.547 44.6389V44.7C142.688 46.1676 140.601 45.923 141.644 43.9663L143.056 41.5814L143.915 40.1139C145.204 37.9125 146.984 38.7686 145.879 40.6642L144.529 42.9267ZM156.066 49.7754C155.698 50.4481 155.085 50.3869 155.085 49.8366C155.085 49.3474 155.514 48.797 156.926 48.2467L156.066 49.7754ZM156.926 45.6784C156.496 45.6784 156.312 45.3727 156.742 44.7L159.319 40.2362C160.301 38.524 162.265 38.952 161.344 40.6031L159.933 43.049C158.828 44.8223 157.662 45.6784 156.926 45.6784ZM175.03 42.9267H174.969C174.355 42.9267 173.864 43.4159 173.864 44.0274C173.864 44.272 173.925 44.4555 174.048 44.6389V44.7C173.189 46.1676 171.102 45.923 172.146 43.9663L173.557 41.5814L174.416 40.1139C175.705 37.9125 177.485 38.7686 176.38 40.6642L175.03 42.9267Z" fill="#766458"/>
<path d="M79.8437 40.8469H62.1074V42.0699H79.8437V40.8469Z" fill="#766458"/>
<path d="M219.156 40.8469H201.42V42.0699H219.156V40.8469Z" fill="#766458"/>
<path d="M100.035 0H104.76L104.024 27.456H95.1252L93.8978 16.1434L92.6704 27.456H83.7102L83.0351 0H87.6993L88.0675 22.7475H88.5585L91.5657 0H96.2299L99.2371 22.7475H99.728L100.035 0Z" fill="#81B3D3"/>
<path d="M119.551 22.7475V27.5171H106.724V0H119.551V4.70849H111.388V11.3126H117.894V16.0211H111.388V22.6864H119.551V22.7475Z" fill="#81B3D3"/>
<path d="M132.684 22.7475V27.5171H121.453V0H126.118V22.7475H132.684Z" fill="#81B3D3"/>
<path d="M142.626 17.3664L147.352 16.2657V24.582C147.352 26.1719 146.002 27.456 144.467 27.456H137.41C135.814 27.456 134.525 26.1107 134.525 24.582V2.87401C134.525 1.28413 135.814 0 137.41 0H144.467C146.002 0 147.352 1.28413 147.352 2.87401V8.43859L142.626 9.53928V4.64734H139.251V22.6864H142.626V17.3664Z" fill="#81B3D3"/>
<path d="M160.117 0C161.651 0 163.001 1.28413 163.001 2.87401V24.5208C163.001 26.1107 161.651 27.3948 160.117 27.3948H153.059C151.464 27.3948 150.175 26.0496 150.175 24.5208V2.87401C150.175 1.28413 151.464 0 153.059 0H160.117ZM158.276 4.70849H154.901V22.7475H158.276V4.70849Z" fill="#81B3D3"/>
<path d="M178.344 0H183.009V27.456H178.344V13.942L176.442 20.913H171.839L169.998 13.942V27.456H165.334V0H169.998L174.171 13.2694L178.344 0Z" fill="#81B3D3"/>
<path d="M198.167 22.7475V27.5171H185.341V0H198.167V4.70849H190.005V11.3126H196.51V16.0211H190.005V22.6864H198.167V22.7475Z" fill="#81B3D3"/>
<path d="M27.1874 96.3723C24.978 94.5378 22.2163 93.3148 19.2705 93.3148C17.0612 93.3148 14.1767 94.5989 14.1767 97.1672C14.1767 99.8578 17.4294 100.897 19.4546 101.509L22.5232 102.426C28.9058 104.322 33.8768 107.501 33.8768 114.9C33.8768 119.425 32.7721 124.134 29.1513 127.191C25.5304 130.249 20.7434 131.472 16.1406 131.472C10.3717 131.472 4.6642 129.515 0 126.274L4.97106 116.796C7.97824 119.426 11.4764 121.505 15.5882 121.505C18.4113 121.505 21.3571 120.098 21.3571 116.918C21.3571 113.555 16.6929 112.454 14.1153 111.721C6.62807 109.519 1.71839 107.624 1.71839 98.7571C1.71839 89.4624 8.34646 83.4086 17.5521 83.4086C22.155 83.4086 27.8625 84.8762 31.913 87.1999L27.1874 96.3723Z" fill="white"/>
<path d="M56.2158 94.6602V102.304H69.6561V112.393H56.2158V120.282H70.4539V130.371H44.3098V84.6317H70.4539V94.7213L56.2158 94.6602Z" fill="white"/>
<path d="M79.2914 84.6317H96.2298C108.995 84.6317 119.551 94.6602 119.551 107.502C119.551 120.343 108.934 130.371 96.2298 130.371H79.2914V84.6317ZM91.2587 120.282H93.9591C101.078 120.282 107.154 116.368 107.154 107.502C107.154 99.3075 101.753 94.7213 94.0818 94.7213H91.2587V120.282Z" fill="white"/>
<path d="M175.951 106.645C175.951 121.443 165.272 131.9 150.543 131.9C135.814 131.9 125.136 121.443 125.136 106.645C125.136 92.8255 137.348 83.1028 150.543 83.1028C163.738 83.1028 175.951 92.8255 175.951 106.645ZM137.533 106.706C137.533 114.595 143.363 120.343 150.482 120.343C157.601 120.343 163.431 114.595 163.431 106.706C163.431 100.408 157.601 94.5989 150.482 94.5989C143.424 94.5989 137.533 100.408 137.533 106.706Z" fill="white"/>
<path d="M182.272 84.6317H194.239L216.087 112.638H216.21V84.6317H228.178V130.371H216.21L194.362 102.304H194.239V130.371H182.272V84.6317Z" fill="white"/>
<path d="M249.842 122.422L246.65 130.371H234.008L251.683 84.6317H264.693L282 130.371H269.296L266.289 122.422H249.842ZM258.188 98.7572H258.065L253.156 113.311H263.098L258.188 98.7572Z" fill="white"/>
<path d="M66.2196 175.926C70.9451 174.336 71.252 168.466 66.6492 168.466C65.3604 168.466 63.8261 169.383 62.7828 171.156L56.5229 181.98C56.2161 182.469 55.9706 182.897 55.6024 183.325C54.0067 181.124 54.4363 177.821 56.707 176.354L55.7865 175.192C50.8768 178.311 52.3497 187.238 60.5121 187.238C67.447 187.238 70.6996 178.922 66.2196 175.926ZM60.4507 185.465C59.0391 185.465 57.9958 185.159 57.0753 184.67C57.5049 184.181 57.8731 183.631 58.2413 183.019L62.1691 176.232L62.7828 176.293C68.2448 177.455 66.0968 185.465 60.4507 185.465ZM62.9669 174.886L64.8694 171.645C66.5878 168.71 68.7358 170.422 67.5697 172.624C66.6492 174.336 65.3604 174.825 62.9669 174.886Z" fill="white"/>
<path d="M85.9196 183.448C85.5514 184.794 86.2878 185.955 87.8221 185.955C88.7427 185.955 89.9087 185.344 91.0748 184.427C91.1975 185.344 91.9339 185.955 93.1 185.955C94.3274 185.955 95.6776 185.099 97.0278 183.876C96.7823 185.099 97.3346 185.955 98.5007 185.955C99.7894 185.955 101.201 184.794 102.306 183.754C102.06 184.977 102.797 185.955 104.27 185.955C106.172 185.955 108.381 183.876 110.345 181.675C110.345 181.614 110.284 181.614 110.284 181.553C111.573 180.085 112.677 178.495 113.537 177.394C112.616 179.779 113.107 184.121 110.898 184.121C110.1 184.121 109.793 183.265 109.793 183.265L108.32 183.999C108.32 183.999 108.75 185.894 110.898 185.894C111.143 185.894 111.327 185.894 111.573 185.833H111.634C113.352 185.588 115.009 184.549 116.482 183.265C116.544 184.794 117.71 185.894 119.612 185.894C122.251 185.894 124.89 183.815 126.793 181.614C126.609 181.308 126.24 180.941 125.934 180.819L125.749 181.002C124.092 182.959 121.944 184.488 120.287 184.488C118.876 184.488 118.017 183.571 119.06 181.736L119.305 181.308C120.778 181.919 123.601 181.614 125.381 178.617L125.688 178.067C126.915 175.927 125.749 174.337 123.847 174.337C121.944 174.337 120.471 175.315 119.49 177.028L117.219 180.88H117.157L116.973 181.063C116.114 182.042 115.071 182.959 114.15 183.571C114.887 181.369 114.703 177.945 116.176 175.01L114.457 174.092C113.475 175.438 111.389 178.434 109.302 180.88L109.363 180.941L109.302 181.063C107.645 183.02 105.988 184.549 104.945 184.549C104.454 184.549 104.147 184.182 104.699 183.265L109.67 174.582H107.338L103.226 181.797C101.446 183.387 100.096 184.304 99.6667 184.121C99.1144 183.876 99.6667 183.02 99.9736 182.531L104.515 174.643H102.183L98.5007 181.002C98.4393 180.941 98.3779 180.941 98.3165 180.88L98.1324 181.063C96.4754 183.02 94.8184 184.549 93.7751 184.549C93.2841 184.549 92.9773 184.182 93.5296 183.265L97.2732 176.722H95.9231C95.9844 175.743 95.0025 174.398 93.4682 174.398C92.2408 174.398 90.461 175.377 89.4791 177.089L87.147 181.125C87.0243 181.002 86.9015 180.941 86.7788 180.88L86.5947 181.063C84.9377 183.02 82.7897 184.549 81.1326 184.549C79.7211 184.549 78.8619 183.632 79.9052 181.797L82.2987 177.639C83.6489 175.315 86.0423 175.743 84.6308 178.128L84.3239 178.679H86.2264L86.5333 178.128C87.7607 175.988 86.5947 174.398 84.6922 174.398C82.7897 174.398 81.3168 175.377 80.3348 177.089L78.0027 181.063C77.9414 181.002 77.88 181.002 77.8186 180.941L77.6345 181.125C75.9775 183.081 73.8295 184.61 72.1725 184.61C70.7609 184.61 69.9017 183.693 70.9451 181.858L71.1905 181.43C72.6634 182.042 75.4865 181.736 77.2663 178.74L77.5731 178.189C78.8005 176.049 77.6345 174.459 75.732 174.459C73.8295 174.459 72.3566 175.438 71.3746 177.15L68.9198 181.308C67.4469 183.754 68.7357 186.078 71.4974 186.078C73.5226 186.078 75.6092 184.855 77.2663 183.265C77.2049 184.855 78.4323 186.078 80.3962 186.078C82.3601 185.955 84.2626 184.855 85.9196 183.448ZM121.515 177.578C122.865 175.254 125.258 175.682 123.847 178.067L123.54 178.617C122.435 180.513 120.901 180.452 120.042 180.146L121.515 177.578ZM88.2517 183.265L91.5044 177.639C92.7318 175.499 95.248 176.049 94.0819 178.128L92.2408 181.308C90.8293 183.509 89.4177 184.549 88.4972 184.549C88.0062 184.488 87.6993 184.182 88.2517 183.265ZM73.3999 177.578C74.7501 175.254 77.1435 175.682 75.732 178.067L75.4251 178.617C74.3205 180.513 72.7862 180.452 71.927 180.146L73.3999 177.578Z" fill="white"/>
<path d="M152.323 185.954C154.962 185.954 157.601 183.875 159.503 181.674C159.319 181.368 158.951 181.001 158.644 180.879L158.46 181.062C156.803 183.019 154.655 184.548 152.998 184.548C151.587 184.548 150.727 183.63 151.771 181.796L152.016 181.368C153.489 181.979 156.312 181.674 158.092 178.677L158.399 178.127C159.626 175.987 158.46 174.397 156.558 174.397C154.655 174.397 153.182 175.375 152.2 177.087L149.93 180.94C149.93 180.94 149.868 180.94 149.868 180.879L149.684 181.062C148.027 183.019 146.37 184.548 145.327 184.548C144.836 184.548 144.529 184.181 145.081 183.263L148.457 177.393C149.439 175.62 148.518 174.336 147.229 174.336C146.247 174.336 145.143 174.886 143.977 176.109L147.72 169.688H145.327L138.76 181.001C138.699 180.94 138.576 180.879 138.515 180.817L138.33 181.001C136.673 182.958 135.016 184.486 133.973 184.486C133.482 184.486 133.175 184.12 133.728 183.202L138.699 174.519H140.601L141.276 173.418H139.374L141.583 169.627H139.251L137.042 173.418H134.955L134.28 174.519H136.428L131.764 182.591C130.782 184.303 131.457 185.893 133.359 185.893C134.525 185.893 135.753 185.159 137.042 184.058L136.121 185.648H138.453L142.013 179.533C145.572 175.069 147.168 175.62 146.186 177.332L143.179 182.591C142.197 184.303 142.872 185.893 144.774 185.893C146.186 185.893 147.782 184.792 149.254 183.325C149.254 184.853 150.421 185.954 152.323 185.954ZM154.226 177.577C155.576 175.253 157.969 175.681 156.558 178.066L156.251 178.616C155.146 180.512 153.612 180.451 152.753 180.145L154.226 177.577Z" fill="white"/>
<path d="M222.9 180.879L222.716 181.063C221.059 183.019 219.402 184.548 218.358 184.548C217.867 184.548 217.561 184.181 218.113 183.264L225.968 169.689H223.636L220.199 175.559C219.77 174.886 219.033 174.336 218.051 174.336C216.824 174.336 215.044 175.315 214.062 177.027L211.792 180.94C211.73 180.94 211.669 180.879 211.669 180.879L211.485 181.063C209.828 183.019 208.171 184.548 207.127 184.548C206.636 184.548 206.33 184.181 206.882 183.264L210.257 177.394C211.239 175.62 210.319 174.336 209.03 174.336C208.048 174.336 206.943 174.886 205.777 176.048L206.636 174.52H204.304L200.561 180.94C200.499 180.879 200.438 180.818 200.315 180.818L200.131 181.001C198.474 182.958 196.817 184.487 195.774 184.487C195.283 184.487 194.976 184.12 195.528 183.203L199.272 176.66H198.106C198.167 175.681 197.185 174.336 195.651 174.336C194.424 174.336 192.644 175.315 191.662 177.027L189.391 180.879L189.268 181.001C187.611 182.958 185.954 184.487 184.911 184.487C184.42 184.487 184.113 184.12 184.666 183.203L186.998 179.167C187.796 177.76 187.427 176.966 186.691 176.048L185.402 174.458C185.095 174.03 185.095 173.541 185.525 173.113L184.297 171.768C182.947 172.93 182.886 174.275 183.684 175.315L183.868 175.559C182.824 177.027 181.474 178.983 179.94 180.757C180.001 180.818 180.063 180.879 180.124 180.94C178.222 183.142 176.565 184.548 174.724 185.343L177.669 180.329H175.399L175.153 180.757C173.926 182.897 172.514 184.487 170.673 184.487C169.077 184.487 168.771 182.897 170.182 180.512L170.857 179.35C171.287 179.412 171.716 179.473 172.207 179.473C180.492 179.473 184.482 168.405 177.178 168.405C175.89 168.405 174.355 169.322 173.312 171.095L169.691 177.332C168.341 176.599 167.604 175.315 167.604 174.03C167.604 172.93 168.095 171.89 169.077 171.095L168.341 169.75C166.684 170.912 165.947 172.502 165.947 174.092C165.947 175.926 166.991 177.699 168.893 178.678L168.218 179.901C166.561 182.714 166.868 185.832 170.182 185.832C171.164 185.832 172.023 185.526 172.698 185.098L172.085 186.138C168.955 187.116 166.991 188.339 166.991 190.113C166.991 192.314 170.428 192.803 172.085 189.929L173.864 186.872C176.258 186.138 178.651 184.487 181.229 181.491C181.167 181.429 181.167 181.368 181.106 181.246C182.149 180.023 183.009 178.861 184.788 176.476L185.095 176.843C185.402 177.21 185.525 177.699 185.218 178.189L182.763 182.469C181.781 184.181 182.456 185.771 184.359 185.771C185.525 185.771 186.814 185.037 188.041 183.937C188.041 184.976 188.716 185.771 190.066 185.771C190.987 185.771 192.153 185.16 193.319 184.242C193.442 185.16 194.178 185.771 195.344 185.771C196.449 185.771 197.676 185.098 198.842 184.059L197.983 185.526H200.315L203.875 179.35C207.434 174.886 209.03 175.498 207.987 177.21L204.979 182.469C203.998 184.181 204.673 185.771 206.575 185.771C207.802 185.771 209.153 184.915 210.503 183.753C210.38 184.915 211.117 185.771 212.528 185.771C213.449 185.771 214.615 185.16 215.781 184.242C215.903 185.16 216.64 185.771 217.806 185.771C219.708 185.771 221.918 183.692 223.882 181.491C223.636 181.368 223.207 181.001 222.9 180.879ZM175.092 172.196C175.767 171.034 176.565 170.484 177.178 170.484C180.861 170.484 178.283 178.005 172.207 178.005H171.716L175.092 172.196ZM170.121 189.685C169.63 190.541 168.832 190.418 168.832 189.807C168.832 189.195 169.384 188.523 171.164 187.85L170.121 189.685ZM194.485 181.246C193.073 183.447 191.662 184.487 190.741 184.487C190.25 184.487 189.944 184.12 190.496 183.203L193.749 177.577C194.976 175.437 197.492 175.987 196.326 178.066L194.485 181.246ZM217.008 181.124C215.597 183.447 214.185 184.487 213.203 184.487C212.712 184.487 212.405 184.12 212.958 183.203L216.21 177.577C217.438 175.437 219.954 175.987 218.788 178.066L217.008 181.124Z" fill="white"/>
<path d="M145.143 202.893L144.959 203.076C143.302 205.033 141.645 206.561 140.601 206.561C140.11 206.561 139.803 206.195 140.356 205.277L143.731 199.407C144.713 197.634 143.793 196.35 142.504 196.35C141.522 196.35 140.417 196.9 139.251 198.062L140.11 196.533H137.778L134.035 203.015C133.912 202.954 133.85 202.893 133.728 202.831L133.544 203.015C132.5 204.177 131.211 204.727 130.045 204.727L132.255 200.936C133.666 198.49 132.378 196.227 130.168 196.227C128.388 196.227 126.977 196.961 125.627 199.285L124.461 201.242L123.479 202.954C123.417 202.893 123.356 202.893 123.295 202.831L123.111 203.015C121.208 205.216 119.551 206.623 117.71 207.418L124.092 196.533H121.76L117.648 203.687C115.869 205.339 114.457 206.256 114.028 206.072C113.475 205.828 114.028 204.972 114.334 204.482L118.876 196.594H116.544L112.8 203.015C112.739 202.954 112.677 202.954 112.616 202.893L112.432 203.076C110.775 205.033 109.118 206.561 108.075 206.561C107.584 206.561 107.277 206.195 107.829 205.277L111.205 199.407C112.186 197.634 111.266 196.35 109.977 196.35C108.995 196.35 107.89 196.9 106.724 198.062L107.584 196.533H105.252L101.508 202.954C101.447 202.893 101.385 202.831 101.262 202.831L101.078 203.015C99.4213 204.972 97.7643 206.5 96.721 206.5C96.23 206.5 95.9231 206.133 96.4755 205.216L100.219 198.673H98.8689C98.9303 197.695 97.9484 196.35 96.4141 196.35C95.1867 196.35 93.4069 197.328 92.425 199.04L90.0315 203.198C89.8474 203.076 89.6633 202.954 89.5405 202.893L89.3564 203.076C87.6994 205.033 85.6128 206.561 83.3421 206.561C81.7464 206.561 80.7645 204.972 82.176 202.587L82.8511 201.425C83.2807 201.486 83.7103 201.547 84.2013 201.547C86.6561 201.547 89.4792 200.263 91.3203 197.083C91.9954 195.922 92.2409 194.882 92.2409 193.965C92.2409 191.886 90.8907 190.479 89.1723 190.479C87.8835 190.479 86.3492 191.396 85.3059 193.17L81.685 199.407C80.3349 198.673 79.5984 197.389 79.5984 196.105C79.5984 195.004 80.0894 193.965 81.0713 193.17L80.3349 191.825C78.6779 192.986 77.9414 194.576 77.9414 196.166C77.9414 198.001 78.9847 199.774 80.8872 200.752L80.2121 201.975C78.5551 204.788 79.5371 207.907 82.8511 207.907C85.4287 207.907 87.3925 206.745 88.9882 205.216C88.4972 206.684 89.2337 207.907 90.8907 207.907C91.8113 207.907 92.9773 207.295 94.1434 206.378C94.2661 207.295 95.0026 207.907 96.1686 207.907C97.2733 207.907 98.5007 207.234 99.6668 206.195L98.8076 207.662H101.14L104.699 201.486C108.259 197.022 109.854 197.634 108.811 199.346L105.804 204.605C104.822 206.317 105.497 207.907 107.4 207.907C108.627 207.907 110.038 207.051 111.389 205.828C111.082 207.112 111.695 207.907 112.862 207.907C113.966 207.907 115.255 206.99 116.298 206.011L115.01 208.213C111.88 209.13 109.854 210.414 109.854 212.187C109.854 214.389 113.291 214.878 114.948 212.004L116.728 208.946C118.692 208.335 120.594 207.112 122.62 205.155C122.313 208.396 126.609 209.13 129.248 205.828H129.739C130.598 205.828 131.764 205.522 132.807 204.91L131.273 207.601H133.605L137.164 201.425C140.724 196.961 142.32 197.573 141.276 199.285L138.269 204.544C137.287 206.256 137.962 207.846 139.865 207.846C141.767 207.846 143.977 205.767 145.941 203.565C145.879 203.382 145.45 203.015 145.143 202.893ZM87.2084 194.209C87.8835 193.048 88.6813 192.497 89.2951 192.497C90.1542 192.497 90.5838 193.048 90.5838 193.904C90.5838 196.044 87.9449 199.957 84.324 199.957H83.833L87.2084 194.209ZM95.4322 203.259C94.0206 205.461 92.6091 206.5 91.6885 206.5C91.1976 206.5 90.8907 206.133 91.443 205.216L94.6957 199.59C95.9231 197.45 98.4393 198.001 97.2733 200.08L95.4322 203.259ZM113.107 211.698C112.616 212.554 111.818 212.432 111.818 211.82C111.818 211.209 112.371 210.536 114.15 209.864L113.107 211.698ZM128.818 203.015H128.695C127.959 203.015 127.345 203.626 127.345 204.421C127.345 204.727 127.406 204.972 127.591 205.216V205.277C126.486 207.173 123.847 206.806 125.197 204.36L126.977 201.303L128.082 199.407C129.739 196.655 131.948 197.756 130.536 200.141L128.818 203.015Z" fill="white"/>
<path d="M199.088 203.688C198.965 203.322 198.536 202.955 198.229 202.893L198.045 203.077C197.185 204.055 196.142 204.973 195.221 205.584C195.958 203.383 195.774 199.958 197.247 197.023L195.528 196.106C194.546 197.451 192.46 200.448 190.373 202.893L190.189 203.077C188.532 205.034 186.875 206.562 185.832 206.562C185.341 206.562 184.85 206.073 184.85 204.973V203.994C186.507 204.178 188.225 203.138 189.33 201.242L189.944 200.142C192.092 196.412 188.593 195.189 186.2 197.39L189.514 191.642H187.182L180.554 203.138C180.431 203.016 180.247 202.893 180.124 202.832L179.94 203.016C178.283 204.973 176.135 206.501 174.478 206.501C173.067 206.501 172.207 205.584 173.251 203.75L175.644 199.591C176.994 197.268 179.388 197.696 177.976 200.081L177.669 200.631H179.572L179.879 200.081C181.106 197.94 179.94 196.351 178.038 196.351C176.135 196.351 174.662 197.329 173.68 199.041L171.409 202.955C171.348 202.955 171.287 202.893 171.287 202.893L171.103 203.077C169.446 205.034 167.789 206.562 166.745 206.562C166.254 206.562 165.947 206.196 166.5 205.278L171.471 196.595H169.139L165.027 203.811C163.247 205.401 161.897 206.318 161.467 206.134C160.915 205.89 161.467 205.034 161.774 204.545L166.316 196.656H163.984L159.442 204.422C158.951 204.85 158.399 205.278 157.969 205.645C158.706 203.444 158.522 200.019 159.994 197.084L158.276 196.167C157.294 197.512 151.955 204.606 149.807 207.052C149.991 207.357 150.359 207.602 150.666 207.847C152.016 206.318 156.435 200.631 157.233 199.53C156.312 201.915 156.803 206.257 154.594 206.257C153.796 206.257 153.489 205.401 153.489 205.401L152.016 206.134C152.016 206.134 152.446 208.03 154.594 208.03C154.839 208.03 155.023 208.03 155.269 207.969H155.33C156.496 207.785 157.662 207.296 158.767 206.501C158.767 207.419 159.319 208.03 160.301 208.03C161.59 208.03 163.002 206.868 164.106 205.829C163.861 207.052 164.597 208.03 166.07 208.03C167.543 208.03 169.139 206.868 170.673 205.339C170.673 206.868 171.9 208.03 173.803 208.03C175.705 208.03 177.547 206.99 179.204 205.584L177.915 207.847H180.247L182.886 203.26V205.095C182.886 207.052 183.254 208.091 185.157 208.091C187.059 208.091 189.268 206.012 191.232 203.811C192.583 202.282 193.687 200.692 194.546 199.591C193.626 201.976 194.117 206.318 191.907 206.318C191.11 206.318 190.803 205.462 190.803 205.462L189.33 206.196C189.33 206.196 189.759 208.091 191.907 208.091C192.153 208.091 192.337 208.091 192.583 208.03H192.644C194.976 207.602 197.369 205.706 199.088 203.688ZM183.622 201.854L184.297 200.692C186.998 196.962 188.839 198.002 187.98 199.408L186.875 201.304C186.2 202.527 184.175 203.383 183.622 201.854Z" fill="white"/>
<path d="M199.026 205.278C198.29 205.278 197.676 205.89 197.676 206.623C197.676 207.357 198.229 207.969 199.026 207.969C199.763 207.969 200.377 207.418 200.377 206.623C200.377 205.89 199.763 205.278 199.026 205.278Z" fill="white"/>
<path d="M199.149 204.36H201.481L208.785 191.702H206.452L199.149 204.36Z" fill="white"/>
<path d="M49.2196 169.751C49.2196 169.934 49.1582 170.117 49.0968 170.301C49.0354 170.484 48.9127 170.668 48.79 170.79C48.6672 170.912 48.4831 171.035 48.299 171.157C48.1149 171.218 47.8694 171.279 47.6239 171.279C47.3171 171.279 47.0716 171.218 46.8261 171.096C46.5806 170.974 46.3351 170.851 46.151 170.668C45.9669 170.484 45.9055 170.301 45.7828 170.056C45.7214 169.812 45.66 169.567 45.66 169.261C45.66 168.711 45.7828 168.283 45.9669 167.794C46.151 167.366 46.3965 166.938 46.7647 166.632C46.8875 166.51 47.0716 166.326 47.2557 166.204C47.4398 166.082 47.6239 165.959 47.808 165.898C47.9921 165.837 48.1149 165.715 48.2376 165.654C48.3604 165.592 48.4217 165.592 48.4831 165.531L49.3423 166.754C49.2196 166.815 49.0354 166.877 48.8513 166.999C48.6672 167.06 48.4831 167.182 48.299 167.305C48.1149 167.427 47.9921 167.61 47.8694 167.794C47.7466 167.977 47.6853 168.161 47.6853 168.405C48.1149 168.405 48.4217 168.528 48.7286 168.772C49.0968 168.956 49.2196 169.323 49.2196 169.751ZM54.0679 169.751C54.0679 169.934 54.0065 170.117 53.9451 170.301C53.8838 170.484 53.761 170.668 53.6383 170.79C53.5155 170.912 53.3314 171.035 53.1473 171.157C52.9632 171.218 52.7177 171.279 52.4722 171.279C52.1654 171.279 51.9199 171.218 51.6744 171.096C51.4289 170.974 51.1834 170.851 50.9993 170.668C50.8766 170.484 50.7538 170.301 50.6311 170.056C50.5697 169.812 50.5083 169.567 50.5083 169.261C50.5083 168.711 50.6311 168.283 50.8152 167.794C50.9993 167.366 51.2448 166.938 51.613 166.632C51.7358 166.51 51.9199 166.326 52.104 166.204C52.2881 166.082 52.4722 165.959 52.6563 165.898C52.8404 165.837 52.9632 165.715 53.0859 165.654C53.2087 165.592 53.27 165.592 53.3314 165.531L54.1906 166.754C54.0679 166.815 53.8838 166.877 53.6996 166.999C53.5155 167.06 53.3314 167.182 53.1473 167.305C52.9632 167.427 52.8404 167.61 52.7177 167.794C52.595 167.977 52.5336 168.161 52.5336 168.405C52.9632 168.405 53.27 168.528 53.5769 168.772C53.8838 168.956 54.0679 169.323 54.0679 169.751Z" fill="white"/>
<path d="M216.763 205.767C216.763 205.584 216.824 205.4 216.885 205.217C216.947 205.033 217.069 204.85 217.192 204.728C217.315 204.605 217.499 204.483 217.683 204.361C217.867 204.3 218.113 204.239 218.358 204.239C218.665 204.239 218.911 204.3 219.156 204.422C219.402 204.544 219.647 204.667 219.831 204.85C220.015 205.033 220.077 205.217 220.199 205.462C220.261 205.706 220.322 205.951 220.322 206.256C220.322 206.807 220.199 207.235 220.015 207.724C219.831 208.152 219.586 208.58 219.217 208.886C219.095 209.008 218.911 209.192 218.726 209.314C218.542 209.436 218.358 209.558 218.174 209.62C217.99 209.681 217.867 209.803 217.745 209.864C217.622 209.925 217.56 209.925 217.499 209.987L216.64 208.764C216.763 208.702 216.947 208.641 217.131 208.519C217.315 208.458 217.499 208.336 217.683 208.213C217.867 208.091 217.99 207.907 218.113 207.724C218.236 207.541 218.297 207.357 218.297 207.113C217.867 207.113 217.56 206.99 217.254 206.746C216.947 206.562 216.763 206.195 216.763 205.767ZM211.976 205.767C211.976 205.584 212.037 205.4 212.098 205.217C212.16 205.033 212.282 204.85 212.405 204.728C212.528 204.605 212.712 204.483 212.896 204.361C213.08 204.3 213.326 204.239 213.571 204.239C213.878 204.239 214.124 204.3 214.369 204.422C214.615 204.544 214.86 204.667 215.044 204.85C215.167 205.033 215.29 205.217 215.412 205.462C215.474 205.706 215.535 205.951 215.535 206.256C215.535 206.807 215.412 207.235 215.228 207.724C215.044 208.152 214.799 208.58 214.43 208.886C214.308 209.008 214.124 209.192 213.94 209.314C213.755 209.436 213.571 209.558 213.387 209.62C213.203 209.681 213.08 209.803 212.958 209.864C212.835 209.925 212.773 209.925 212.712 209.987L211.853 208.764C212.037 208.702 212.16 208.641 212.344 208.519C212.528 208.458 212.712 208.336 212.896 208.213C213.08 208.091 213.203 207.907 213.326 207.724C213.449 207.541 213.51 207.357 213.51 207.113C213.08 207.113 212.773 206.99 212.467 206.746C212.098 206.562 211.976 206.195 211.976 205.767Z" fill="white"/>
</symbol>

<symbol id="intro-triangle" width="1200" height="57" viewBox="0 0 1200 57" fill="none">
<path d="M249.6 23.7L0 0V57H249.6H600L249.6 0V23.7Z" fill="white"/>
<path d="M950.4 23.7V0L600 57H950.4H1199.9V0L950.4 23.7Z" fill="white"/>
</symbol>

<symbol id="logo" width="185" height="96" viewBox="0 0 185 96" fill="none">
<path d="M185 0H0L79.8097 90.1011C86.8489 97.9663 98.2503 97.9663 105.289 90.1011L185 0Z" fill="#81B3D3"/>
<path d="M42.8296 0.696915L92.0043 58.8395L140.882 1.09515L42.8296 0.696915Z" fill="#23A9E1"/>
<path d="M120.954 17.2237C115.898 17.2237 110.941 17.3233 105.884 17.3233C111.833 10.4537 114.51 11.1506 120.954 17.2237Z" fill="white"/>
<path d="M80.1072 22.5999C88.9309 22.5999 97.7546 22.5999 106.578 22.5999C104.595 21.4052 99.9357 15.5312 97.358 17.7215C97.1597 17.9207 89.9223 8.86077 85.1635 13.2414C80.9995 17.0246 79.1158 12.7436 74.3569 15.7304C69.1024 19.3145 77.5295 21.4052 80.1072 22.5999Z" fill="white"/>
<path d="M92.3017 0H41.8382V22.4008L92.0043 83.6298L92.3017 83.2315L142.567 23.0977V0H92.3017ZM54.4293 1.79207H59.8821V18.9163L54.4293 12.4449V1.79207ZM53.6361 11.5489L48.679 5.67488V1.79207H53.6361V11.5489ZM72.7706 8.86077L67.1195 1.79207H72.7706V8.86077ZM66.2272 12.644L60.6752 1.79207H66.2272V12.644ZM60.5761 3.38501L66.0289 14.0379C63.2529 16.1286 61.3692 18.0202 60.5761 18.9163V3.38501ZM67.0204 2.88722L72.5723 9.75681C71.4818 10.3542 70.3912 11.0511 69.4989 11.6484C68.6066 12.2458 67.8135 12.8431 67.0204 13.4405V2.88722ZM73.5638 2.6881L78.3226 6.86959C76.6372 7.5665 75.0509 8.36298 73.5638 9.15945V2.6881ZM79.1158 6.57091L73.7621 1.79207H79.7106V6.37179C79.4132 6.37179 79.314 6.47135 79.1158 6.57091ZM98.052 1.79207H103.009L98.052 4.18149V1.79207ZM92.3017 1.79207H96.664L92.3017 3.88281V1.79207ZM91.4094 3.78325L87.2454 1.79207H91.4094V3.78325ZM85.9566 4.28105L80.9003 1.79207H85.9566V4.28105ZM80.4046 2.38942L85.0643 4.67928C83.478 5.07752 81.8917 5.47576 80.4046 5.97355V2.38942ZM86.7497 2.38942L90.1206 3.98237C88.9309 4.08193 87.8403 4.18149 86.6506 4.38061V2.38942H86.7497ZM97.0606 2.48898V4.38061C95.97 4.18149 94.8794 4.08193 93.6897 3.98237L97.0606 2.48898ZM103.505 2.38942V6.07311C102.018 5.57532 100.431 5.07752 98.746 4.67928L103.505 2.38942ZM104.199 1.79207H110.048L104.695 6.57091C104.496 6.47135 104.397 6.47135 104.199 6.37179V1.79207ZM117.682 1.79207H123.234L117.682 12.644V1.79207ZM111.139 1.79207H116.79L111.139 8.76121V1.79207ZM110.346 2.6881V9.15945C108.859 8.36298 107.272 7.5665 105.587 6.86959L110.346 2.6881ZM116.889 2.88722V13.3409C116.195 12.8431 115.402 12.3453 114.609 11.748C113.617 11.0511 112.428 10.3542 111.238 9.65725L116.889 2.88722ZM123.234 3.38501V18.518C122.144 17.5224 120.359 15.8299 117.781 13.9383L123.234 3.38501ZM124.027 19.3145V1.79207H129.48V13.1418L124.027 19.3145C124.126 19.4141 124.027 19.4141 124.027 19.3145ZM130.273 1.79207H135.23V6.47135L130.273 12.2458V1.79207ZM47.985 1.79207V4.67928L45.5064 1.79207H47.985ZM60.6752 19.9118L60.7744 20.0114C60.7744 20.0114 64.3435 16.1286 69.8955 12.4449C75.1501 8.96033 83.0815 4.8784 92.0043 4.97796C100.828 4.97796 108.958 9.15945 114.113 12.644C119.665 16.3277 123.333 20.111 123.432 20.2105L119.566 24.6907C112.725 25.5867 107.768 30.7638 101.125 29.6687C97.7546 29.0713 97.6554 27.1797 96.664 25.1885C95.97 23.6951 94.7803 23.8942 93.194 23.2969C91.806 22.6995 90.9137 21.6044 88.0386 22.2017C85.56 22.7991 85.2626 26.6819 82.09 26.4828C80.4046 26.3832 80.3055 23.9938 77.926 21.007C71.6801 13.4405 65.8307 14.5356 61.865 21.5048L91.9051 57.2466L60.6752 19.9118ZM135.924 5.47576V1.79207H139.097L135.924 5.47576Z" fill="#491213"/>
<path d="M87.9394 70.5875L92.0043 64.1161L95.97 70.5875L92.0043 77.0589L87.9394 70.5875Z" fill="#23A9E1"/>
<path d="M64.9384 32.1576C65.4341 32.755 65.8307 33.4519 65.7315 34.2484C65.6324 34.8457 64.8392 35.8413 65.4341 36.0404C66.1281 35.1444 66.9212 34.1488 67.6152 33.2528C67.0204 33.0537 62.2615 27.4783 62.2615 26.7814C61.171 27.3788 60.1795 27.9761 59.089 28.4739C59.2873 29.1709 60.3778 28.4739 60.9727 28.4739C61.7658 28.5735 62.3607 29.0713 62.9555 29.6687C61.2701 31.0625 57.1061 34.6466 56.6104 34.7462C56.4121 34.7462 55.5198 34.1488 55.5198 34.6466C55.5198 34.9453 56.4121 35.6422 56.5113 35.8413C57.2053 36.7374 57.9984 37.6334 58.6924 38.5294C59.2873 38.2307 58.5933 37.8325 58.8907 37.3347C59.1881 36.9365 63.7487 33.0537 64.9384 32.1576Z" fill="white"/>
<path d="M59.6838 25.1885C60.0804 25.0889 60.2787 25.5867 60.6752 25.0889C59.8821 24.0933 59.089 23.1973 58.2958 22.2017C57.8992 21.8035 57.5027 21.3057 57.6018 22.2017C57.701 22.7991 51.5541 27.8766 51.1576 27.9761C50.6618 28.1753 50.3644 27.5779 50.067 28.0757C50.761 28.9717 51.5541 29.7682 52.2481 30.6642C52.4464 30.9629 52.7438 31.2616 52.9421 31.5603C53.2395 31.859 53.1404 30.8634 53.1404 30.9629C53.0413 30.4651 53.6361 30.0669 54.0327 29.7682C55.5198 28.4739 59.2872 25.1885 59.6838 25.1885Z" fill="white"/>
<path d="M50.9593 24.2925C49.1747 24.7903 47.291 24.0933 46.7953 22.3013C46.2996 20.5092 47.3901 18.518 48.8773 17.5224C50.2653 16.5268 52.4464 16.5268 53.2396 18.3189C53.537 19.1154 53.4378 20.0114 53.1404 20.8079C52.9421 21.3057 52.5456 21.8035 53.2396 22.1022C54.1318 21.007 54.925 19.9118 55.8173 18.8167C54.7267 18.2193 54.3301 17.1242 53.537 16.2282C52.6447 15.133 51.455 14.1374 50.067 13.9383C47.1919 13.5401 44.515 16.5268 44.3167 19.1154C44.2176 20.6088 44.7133 21.903 45.5064 23.0977C46.2996 24.0933 47.3901 24.6907 47.8859 25.8854C48.1833 25.985 50.5627 24.8898 51.1576 24.5911C51.0584 24.4916 51.0584 24.392 50.9593 24.2925C50.9593 24.2925 50.2653 24.4916 50.9593 24.2925Z" fill="white"/>
<path d="M89.9223 60.532C88.7326 59.7355 85.9566 55.8527 85.3617 55.2554C85.2626 55.1558 85.1635 54.9567 85.0643 54.8571C85.0643 54.8571 84.7669 55.0563 84.866 55.0563C84.6677 55.1558 84.9652 55.6536 84.7669 55.9523C83.9737 57.147 79.0166 60.9303 78.8183 61.1294C78.2235 61.5276 77.6286 60.9303 77.3312 61.4281C78.0252 62.3241 80.1072 64.9126 80.3055 65.0122C80.8012 65.1117 80.4046 64.2157 80.5037 64.0166C80.6029 63.6184 83.0815 61.6272 83.9737 60.8307C84.2712 60.532 84.6677 61.2289 84.866 61.5276C85.1634 62.0254 85.3617 62.5232 85.1635 63.1206C85.0643 63.5188 84.4695 64.0166 84.866 64.3153C85.4609 63.6184 87.2454 61.5276 87.4437 61.3285C87.7412 61.0298 86.8489 61.3285 86.948 61.2289C86.5514 61.4281 86.254 61.4281 85.8574 61.2289C85.7583 61.1294 84.7669 60.1338 84.866 60.0342C85.2626 59.636 85.8574 59.0386 86.3532 58.9391C87.2454 58.74 87.9394 60.4325 88.0386 61.0298C88.1377 61.6272 88.1377 62.2245 87.9394 62.8219C87.8403 63.2201 87.4437 63.5188 87.9394 63.7179C88.6334 62.7223 89.3274 61.8263 90.0214 60.8307C90.2197 60.6316 90.0214 60.532 89.9223 60.532C90.1206 60.532 89.8231 60.4325 89.9223 60.532Z" fill="white"/>
<path d="M79.8098 56.3505C81.9909 54.4589 82.2883 51.273 80.6029 49.0827C78.7192 46.5937 75.2492 45.9964 72.8698 47.9876C70.6886 49.8792 70.3912 52.9655 72.0766 55.2554C74.0595 57.9435 77.2321 58.2422 79.8098 56.3505C80.9995 55.4545 79.7106 56.4501 79.8098 56.3505ZM79.314 51.6712C78.7192 53.1646 77.1329 54.7576 75.6458 55.3549C73.8612 56.0519 72.5724 54.5585 73.2664 52.7664C73.9603 51.273 75.4475 49.6801 76.9346 49.0827C78.8183 48.3858 80.008 49.9787 79.314 51.6712C79.4132 51.4721 78.9175 52.5673 79.314 51.6712Z" fill="white"/>
<path d="M73.4646 41.8149C73.9603 41.9144 74.3569 42.3127 74.7535 41.8149C74.0595 40.9188 73.2663 40.0228 72.5723 39.2263C71.9775 39.525 72.5724 39.7241 72.3741 40.2219C72.1758 40.6202 69.7964 41.0184 69.2015 41.118C69.3998 40.5206 70.0938 38.5294 70.3912 38.3303C70.8869 37.9321 71.2835 38.7285 71.6801 38.2307C70.7878 37.1356 69.8955 36.0404 69.0032 34.9453C68.7058 34.5471 68.4084 33.9497 68.0118 34.2484C68.0118 34.2484 68.0118 35.7418 67.9127 35.9409C67.8135 36.14 67.0204 39.525 66.0289 40.421C65.5332 40.8193 63.8478 42.3127 63.3521 42.5118C62.8564 42.7109 62.559 41.9144 62.1624 42.5118C62.9555 43.5074 63.8478 44.503 64.6409 45.4986C64.7401 45.5981 65.2358 46.3946 65.4341 46.3946C65.9298 46.4942 65.5332 45.4986 65.5332 45.2995C65.7315 44.9012 68.0118 42.6114 69.0032 42.4122C70.1929 42.2131 71.9775 41.7153 73.4646 41.8149C73.7621 41.9144 73.0681 41.8149 73.4646 41.8149Z" fill="white"/>
<path d="M67.2187 22.7991C63.253 22.5999 64.8392 18.8167 67.6152 18.0202C70.1929 17.2237 75.6458 19.7127 77.3312 21.4052C74.5552 22.3013 70.9861 22.1021 68.0118 22.3013C67.8135 19.1154 67.0204 20.2105 67.2187 22.7991Z" fill="#DC6243"/>
<path d="M76.6372 35.244C68.1109 35.1444 73.8612 22.0026 76.7363 22.7991C80.1072 23.8942 79.7106 35.3435 76.6372 35.244Z" fill="#DC6243"/>
<path d="M82.6849 30.9629C81.8918 33.4519 80.3055 33.9497 80.5038 30.8634C80.702 27.3788 82.9823 28.1753 85.3617 26.881C87.3446 25.7858 88.4352 21.7039 91.9052 24.0933C93.4914 25.1885 95.276 24.2925 95.7717 25.8854C95.7717 25.7858 91.3103 36.14 93.7889 36.14C88.8317 36.14 91.0129 30.266 92.8966 26.2836C91.112 27.1797 88.1377 32.9541 90.5172 33.8501C89.2283 35.5426 85.3617 37.733 83.3789 36.14C81.8917 35.0449 82.6849 32.9541 82.6849 30.9629Z" fill="#DC6243"/>
<path d="M86.7497 40.5206C83.2797 41.5162 78.7192 39.3259 84.2712 38.2307C87.7412 37.5338 91.4094 38.9277 86.7497 40.5206C86.8489 40.5206 86.6506 40.5206 86.7497 40.5206Z" fill="#DC6243"/>
<path d="M91.112 40.421C90.418 38.7285 91.7068 36.8369 93.7888 38.2307C95.5734 39.4255 92.8966 41.3171 91.112 40.421Z" fill="#DC6243"/>
<path d="M88.1377 45.0008C85.7583 44.3039 77.7278 44.4034 82.9823 42.2131C84.6677 41.6158 93.0949 42.4122 88.1377 45.0008Z" fill="#DC6243"/>
<path d="M98.5477 48.2862C97.1597 47.0915 95.6725 46.992 94.3837 48.2862C92.5991 45.0008 86.1549 46.0959 83.0815 45.5981C84.6677 49.6801 97.7545 50.4765 98.5477 48.2862Z" fill="#DC6243"/>
<path d="M96.664 50.7752C93.4914 50.6757 90.0214 50.1779 87.1463 50.8748C89.03 51.3726 93.4914 52.6668 89.3274 53.762C90.8146 55.9523 93.2931 55.7532 94.8794 53.8615C94.1854 53.5629 93.888 53.1646 93.2931 52.7664C94.8794 52.4677 96.4657 51.5717 96.664 50.7752Z" fill="#DC6243"/>
<path d="M100.233 46.8924C94.9786 43.8061 96.2674 41.5162 100.63 39.3259C102.91 38.2307 107.867 34.1488 109.949 35.4431C106.677 39.3259 103.406 43.1092 100.233 46.8924Z" fill="#DC6243"/>
<path d="M96.4657 39.6246C92.0043 35.0449 103.108 35.4431 104.893 33.8501C106.182 34.2484 115.6 25.5867 117.88 26.1841C116.195 28.0757 112.725 34.2484 110.147 34.2484C108.165 34.2484 106.182 33.9497 104.695 35.3435C102.513 37.4343 98.8451 38.4299 96.4657 39.6246Z" fill="#F49774"/>
<path d="M97.9529 34.0493C95.4743 35.3435 93.194 30.1664 97.4571 30.6642C100.233 30.9629 103.108 30.4651 105.686 30.8634C103.703 33.1532 101.026 34.4475 97.9529 34.0493Z" fill="#F4B1A4"/>
<path d="M110.445 52.2686C110.643 52.866 110.742 53.5629 110.643 54.2598C110.544 55.1558 109.652 57.147 108.462 56.5496C107.272 55.9523 106.281 54.8571 105.289 53.9611C106.083 53.0651 106.777 52.2686 108.165 52.6668C108.561 52.7664 108.859 52.6668 108.462 52.3682C108.065 52.169 105.389 50.377 105.19 50.5761C104.893 50.8748 105.686 51.4721 105.389 52.0695C105.19 52.4677 104.794 52.866 104.496 53.2642C103.802 52.6668 102.613 51.9699 103.406 50.9743C103.901 50.2774 104.695 49.7796 105.488 49.6801C106.083 49.5805 107.272 50.0783 107.471 49.4809C106.38 48.9831 105.289 48.4853 104.199 47.888C104.397 48.6845 100.927 52.3682 100.134 53.3638C100.035 53.4633 99.44 53.9611 99.44 54.1602C99.44 54.5585 100.035 54.2598 100.134 54.2598C100.63 54.0607 106.876 59.3373 107.074 59.7355C107.173 60.0342 106.876 60.3329 107.074 60.4325C107.074 60.4325 107.272 60.6316 107.371 60.6316C107.768 60.1338 111.833 54.658 112.725 54.4589C111.932 53.2642 111.139 52.0695 110.346 50.7752C109.751 51.0739 110.346 51.7708 110.445 52.2686Z" fill="white"/>
<path d="M104.298 58.9391C102.216 57.6448 98.746 60.2333 98.2503 60.4325C97.2588 60.9303 96.4657 59.9347 96.9614 58.9391C97.4571 58.1426 98.3494 57.7444 99.2417 57.6448C99.5391 57.6448 100.531 57.8439 100.729 57.6448C100.828 57.4457 100.927 57.4457 100.729 57.3461C99.8366 56.7488 99.0434 56.1514 98.1511 55.6536C97.9528 56.7488 96.7631 57.3461 96.0691 58.043C95.276 58.9391 94.582 59.9347 94.582 61.2289C94.582 62.3241 95.276 63.3197 96.2674 63.917C97.358 64.5144 98.5477 64.0166 99.5391 63.4192C100.134 63.021 100.828 62.5232 101.423 62.2245C102.414 61.7267 103.703 62.125 103.406 63.5188C103.108 64.6139 102.018 65.6095 101.026 65.8087C100.431 66.0078 99.7374 65.9082 99.1426 65.7091C98.746 65.6095 98.1511 65.0122 97.9528 65.6095C99.1426 66.406 100.233 67.302 101.423 68.0985C101.522 67.302 101.919 67.0034 102.513 66.5056C103.207 65.9082 103.901 65.2113 104.496 64.4148C105.686 62.7223 106.083 60.3329 104.298 58.9391Z" fill="white"/>
<path d="M104.298 58.9391C103.703 58.4413 105.289 59.5364 104.298 58.9391V58.9391Z" fill="white"/>
<path d="M140.683 19.5136C139.989 20.2105 132.355 17.2237 131.76 16.726C131.463 16.6264 131.463 15.4317 131.066 15.9295C130.67 16.4273 130.273 16.9251 129.877 17.4229C129.48 17.9207 129.084 18.4185 128.588 18.9163C128.29 19.2149 128.092 19.4141 128.588 19.6132C129.381 19.2149 133.942 26.881 133.545 28.0757C132.851 28.4739 126.704 22.9982 126.506 22.6995C126.407 22.5999 126.803 21.7039 126.308 21.8035C126.109 21.8035 125.614 22.6995 125.415 22.8986C125.118 23.2969 124.82 23.5955 124.523 23.9938C124.82 24.4916 125.019 23.9938 125.514 23.9938C125.911 24.0933 127.299 25.288 127.696 25.6863C127.002 25.6863 125.019 25.7858 124.82 25.7858C123.928 25.8854 124.424 25.0889 123.829 24.8898C123.036 25.7858 122.342 26.6819 121.549 27.6775C121.152 28.1753 120.656 28.7726 120.26 29.2704C120.161 29.37 120.26 29.2704 120.26 29.37C120.557 29.6687 120.359 29.5691 120.855 29.37C121.35 29.1709 127.398 34.2484 127.596 34.5471C127.993 34.9453 127.398 35.5426 127.993 35.7418C128.588 35.0449 129.183 34.2484 129.778 33.5515C129.877 33.4519 129.877 33.4519 129.778 33.3523C129.381 32.9541 129.282 33.5515 128.786 33.5515C128.29 33.4519 124.424 30.1664 122.937 28.9717C124.721 28.8722 130.174 28.6731 131.066 28.6731C131.364 28.6731 132.157 29.5691 132.157 29.8678C132.058 30.266 131.661 30.4651 132.256 30.6642C132.752 30.0669 133.248 29.5691 133.743 28.9717L133.942 28.6731C134.041 28.5735 134.041 28.5735 134.14 28.3744L134.338 28.1753C134.735 27.6775 136.123 26.1841 135.924 26.0845C135.429 25.6863 135.23 26.5823 134.636 25.985C134.338 25.7858 133.446 24.1929 133.248 23.7947C132.95 23.3964 133.842 22.8986 134.239 22.6995C135.032 22.2017 137.412 21.5048 137.709 22.9982C137.709 23.2969 137.412 23.496 137.61 23.6951C137.61 23.6951 137.808 23.8942 137.907 23.8942C138.106 23.6951 140.287 21.1066 141.179 19.9118C140.882 19.7127 140.782 19.6132 140.683 19.5136ZM133.347 21.7039C133.446 21.7039 133.545 21.6044 133.347 21.7039C133.049 21.903 132.653 22.2017 132.355 22.5004C131.86 21.6044 131.364 20.7083 130.769 19.8123C131.959 20.3101 133.148 20.8079 134.239 21.3057C134.041 21.4052 133.743 21.5048 133.347 21.7039Z" fill="white"/>
<path d="M123.73 32.8545C121.35 30.8634 118.178 31.4607 116.195 33.651C114.311 35.9409 114.51 39.3259 116.79 41.2175C119.07 43.1092 122.441 42.6114 124.325 40.4211C126.208 38.1312 126.109 34.7462 123.73 32.8545ZM123.432 39.4255C123.432 39.4255 123.432 39.525 123.432 39.4255C122.144 40.7197 120.062 39.525 118.971 38.7285C117.88 37.9321 115.898 36.14 117.087 34.6466C118.178 33.3523 120.161 34.4475 121.251 35.1444C122.441 35.9409 124.622 37.733 123.532 39.3259C123.631 39.2263 123.631 39.2263 123.432 39.4255Z" fill="white"/>
<path d="M123.73 32.8546C123.432 32.6554 124.92 33.8501 123.73 32.8546V32.8546Z" fill="white"/>
<path d="M123.432 39.5255C123.432 39.4255 123.432 39.4255 123.432 39.5255C123.532 39.4255 123.532 39.4255 123.532 39.4255C123.432 39.4255 123.432 39.5255 123.432 39.5255Z" fill="white"/>
<path d="M117.186 41.9144C117.286 42.014 117.484 42.2131 117.186 41.9144C114.311 39.7241 110.941 40.3215 108.759 43.0096C107.768 44.2043 106.777 45.399 105.785 46.5937C106.182 47.0915 106.578 46.4942 107.074 46.7928C107.471 47.0915 113.221 51.8704 113.32 52.169C113.518 52.6668 113.023 52.6668 113.419 53.0651C113.617 53.1646 117.88 47.888 118.277 46.8924C119.169 45.1003 118.574 43.2087 117.186 41.9144ZM115.898 48.6845C115.699 48.9832 115.898 48.784 115.204 49.3814C114.906 49.6801 108.859 44.7021 109.057 44.503C109.85 43.607 111.635 42.91 112.626 43.2087C114.807 43.7065 117.781 46.3946 115.898 48.6845Z" fill="white"/>
</symbol>

<symbol id="mail" width="58" height="58" viewBox="0 0 58 58" fill="none">
<rect width="58" height="58" fill="#E6E6E6"/>
<path d="M29 31C28.7 31 28.5 30.9 28 30.7L21 27V34C21 34.5 21.5 35 22 35H36C36.5 35 37 34.5 37 34V27L30 30.7C29.5 30.9 29.3 31 29 31ZM36 23H22C21.5 23 21 23.5 21 24V24.8L29 29L37 24.8V24C37 23.5 36.5 23 36 23Z" fill="black"/>
</symbol>

<symbol id="phone" width="58" height="58" viewBox="0 0 58 58" fill="none">
<rect width="58" height="58" fill="#E6E6E6"/>
<path d="M23.6 27.8C25 30.6 27.4 32.9 30.2 34.4L32.4 32.2C32.7 31.9 33.1 31.8 33.4 32C34.5 32.4 35.7 32.6 37 32.6C37.6 32.6 38 33 38 33.6V37C38 37.6 37.6 38 37 38C27.6 38 20 30.4 20 21C20 20.4 20.4 20 21 20H24.5C25.1 20 25.5 20.4 25.5 21C25.5 22.2 25.7 23.4 26.1 24.6C26.2 24.9 26.1 25.3 25.9 25.6L23.6 27.8Z" fill="#010101"/>
</symbol>

<symbol id="social-tg" width="24" height="24" viewBox="0 0 24 24" fill="none">
<path d="M22.4393 4.62225L19.2705 19.566C19.0313 20.6205 18.408 20.883 17.5223 20.3865L12.6938 16.8285L10.3643 19.0695C10.1063 19.3275 9.891 19.5428 9.39375 19.5428L9.741 14.6258L18.6893 6.54C19.0785 6.1935 18.6045 6.00075 18.0848 6.348L7.02225 13.314L2.25976 11.823C1.22401 11.4998 1.20526 10.7873 2.47576 10.29L21.1035 3.11325C21.966 2.79 22.7205 3.30525 22.4393 4.623V4.62225Z" fill="white"/>
</symbol>

<symbol id="social-vk" width="24" height="24" viewBox="0 0 24 24" fill="none">
<g clip-path="url(#clip0_63349_971)">
<path fill-rule="evenodd" clip-rule="evenodd" d="M23.45 5.948C23.616 5.402 23.45 5 22.655 5H20.03C19.362 5 19.054 5.347 18.887 5.73C18.887 5.73 17.552 8.926 15.661 11.002C15.049 11.604 14.771 11.795 14.437 11.795C14.27 11.795 14.019 11.604 14.019 11.057V5.948C14.019 5.292 13.835 5 13.279 5H9.151C8.734 5 8.483 5.304 8.483 5.593C8.483 6.214 9.429 6.358 9.526 8.106V11.904C9.526 12.737 9.373 12.888 9.039 12.888C8.149 12.888 5.984 9.677 4.699 6.003C4.45 5.288 4.198 5 3.527 5H0.9C0.15 5 0 5.347 0 5.73C0 6.412 0.89 9.8 4.145 14.281C6.315 17.341 9.37 19 12.153 19C13.822 19 14.028 18.632 14.028 17.997V15.684C14.028 14.947 14.186 14.8 14.715 14.8C15.105 14.8 15.772 14.992 17.33 16.467C19.11 18.216 19.403 19 20.405 19H23.03C23.78 19 24.156 18.632 23.94 17.904C23.702 17.18 22.852 16.129 21.725 14.882C21.113 14.172 20.195 13.407 19.916 13.024C19.527 12.533 19.638 12.314 19.916 11.877C19.916 11.877 23.116 7.451 23.449 5.948H23.45Z" fill="white"/>
</g>
<defs>
<clipPath>
<rect width="24" height="24" fill="white"/>
</clipPath>
</defs>
</symbol>

<symbol id="social-youtube" width="20" height="14" viewBox="0 0 20 14" fill="none">
<path d="M17.1813 0H2.81331C1.30618 0 0 1.3 0 2.8V11.1C0 12.7 1.30618 14 2.81331 14H17.1813C18.7889 14 19.9946 12.7 19.9946 11.2V2.8C20.095 1.3 18.7889 0 17.1813 0ZM7.03326 10.4V3.6L13.8656 7L7.03326 10.4Z" fill="white"/>
</symbol>

<symbol id="tick" width="22" height="16" viewBox="0 0 22 16" fill="none">
<path d="M21.8053 1.30662L20.759 0.22188C20.4736 -0.0739599 19.9029 -0.0739599 19.6176 0.22188L8.29884 11.9569L2.40167 5.84283C2.11633 5.54699 1.54563 5.54699 1.26028 5.84283L0.21401 6.92758C-0.0713367 7.22342 -0.0713367 7.8151 0.21401 8.11094L7.63303 15.8028C7.82326 16 8.01349 16 8.20373 16C8.39396 16 8.58419 15.9014 8.77442 15.8028L21.615 2.48999C22.0906 2.19415 22.0906 1.70108 21.8053 1.30662Z" fill="#333333"/>
</symbol>

<symbol id="icon-burger" width="40" height="36" viewBox="0 0 40 36" fill="none">
<path d="M37.7428 23.8505H2.25722C0.997375 23.8505 0 24.8635 0 26.0285V27.8014C0 28.9664 0.997375 29.9288 2.25722 29.9288H2.78215V30.4354C2.78215 33.2213 5.14436 35.45 7.979 35.45H32.021C34.9081 35.45 37.2178 33.1706 37.2178 30.4354V29.9288H37.7428C38.9501 29.9288 40 28.9664 40 27.7508V25.9779C40 24.8635 39.0026 23.8505 37.7428 23.8505ZM35.6955 30.4354C35.6955 32.3602 34.0682 33.9304 32.0735 33.9304H7.92651C5.93176 33.9304 4.30446 32.3602 4.30446 30.4354V29.9288H35.6955V30.4354ZM38.4252 27.7508C38.4252 28.1053 38.1102 28.4092 37.7428 28.4092H2.25722C1.88976 28.4092 1.5748 28.1053 1.5748 27.7508V25.9779C1.5748 25.674 1.88976 25.3701 2.25722 25.3701H37.7953C38.1627 25.3701 38.4777 25.674 38.4777 26.0285V27.7508H38.4252Z" fill="#81B3D2"/>
<path d="M8.50395 19.7473L11.3386 21.7735L14.2257 19.7473L17.1129 21.7735L20 19.7473L22.8347 21.7735L25.7218 19.7473L28.6089 21.7735L31.4961 19.7473L34.3832 21.7735L37.6903 19.3928L36.7979 18.1771L34.3832 19.8486L31.4961 17.8225L28.6089 19.8486L25.7218 17.8225L22.8347 19.8486L20 17.8225L17.1129 19.8486L14.2257 17.8225L11.3386 19.8486L8.50395 17.8225L5.61682 19.8486L3.20212 18.1771L2.25723 19.3928L5.61682 21.7735L8.50395 19.7473Z" fill="#81B3D2"/>
<path d="M37.2179 16.3032C37.2179 15.9993 37.2704 14.9862 37.2179 14.7836C36.8504 6.88169 29.2913 0.550049 20 0.550049C10.7087 0.550049 3.09712 6.88169 2.72967 14.7836C2.72967 14.9862 2.72967 15.9993 2.72967 16.3032H37.2179ZM20 2.06964C28.399 2.06964 35.3281 7.74279 35.6431 14.7836H4.30447C4.67193 7.74279 11.6011 2.06964 20 2.06964Z" fill="#81B3D2"/>
<path d="M20 9.16113C20.5798 9.16113 21.0499 8.70757 21.0499 8.14807C21.0499 7.58857 20.5798 7.13501 20 7.13501C19.4202 7.13501 18.9501 7.58857 18.9501 8.14807C18.9501 8.70757 19.4202 9.16113 20 9.16113Z" fill="#81B3D2"/>
<path d="M15.8005 6.67871C16.3803 6.67871 16.8504 6.22515 16.8504 5.66565C16.8504 5.10615 16.3803 4.65259 15.8005 4.65259C15.2207 4.65259 14.7506 5.10615 14.7506 5.66565C14.7506 6.22515 15.2207 6.67871 15.8005 6.67871Z" fill="#81B3D2"/>
<path d="M24.1995 6.67871C24.7793 6.67871 25.2493 6.22515 25.2493 5.66565C25.2493 5.10615 24.7793 4.65259 24.1995 4.65259C23.6196 4.65259 23.1496 5.10615 23.1496 5.66565C23.1496 6.22515 23.6196 6.67871 24.1995 6.67871Z" fill="#81B3D2"/>
</symbol>

<symbol id="icon-copyright" width="29" height="35" viewBox="0 0 29 35" fill="none">
<path d="M14.65 0.449951H14.55L1.05 1.84995V26.55L14.55 34.5499L27.95 26.55V1.84995L14.65 0.449951ZM26.05 12.55L14.55 5.74995V5.64995H14.45L14.35 5.54995V5.64995L2.95 12.55V3.54995L14.45 2.34995L26.05 3.54995V12.55ZM14.45 7.24995L25.95 13.95L21.45 16.55L14.35 12.35V13.75L20.25 17.25L19.35 17.75L14.35 14.75V16.15L18.15 18.45L17.35 18.95L14.35 17.15V18.55L16.25 19.65L14.45 20.75L3.05 14.05L14.45 7.24995ZM2.95 15.55L14.35 22.35V23.35L6.45 18.65V20.05L14.45 24.85V25.95L6.45 21.25V22.65L14.45 27.45L22.55 22.55V17.35L25.95 15.35V25.35L14.45 32.25L2.95 25.45V15.55Z" fill="currentColor"/>
</symbol>

<symbol id="icon-gift" width="32" height="38" viewBox="0 0 32 38" fill="none">
<path d="M30.5778 11.2058H30.527H18.1841C25.0921 7.76156 25.6508 5.58358 25.3968 4.36796C24.8381 2.39259 22.5524 0.873068 20.419 1.68348C17.6254 2.74714 16.8635 6.9005 16.1016 9.88889C15.1365 6.84985 14.2222 3.0004 12.0381 1.02502C11.4286 0.467863 10.5143 -0.0892942 9.14286 0.0120071C7.11111 0.21461 4.21587 2.69649 5.43492 5.48228C6.55238 8.16676 10.2603 9.88888 12.7492 11.2565H1.42222C0.609524 11.2565 0 11.9149 0 12.6747V18.3475C0 19.158 0.660317 19.7658 1.42222 19.7658H1.5746V38H30.527V19.7658H30.5778C31.3905 19.7658 32 19.1073 32 18.3475V12.6747C32 11.8643 31.3397 11.2058 30.5778 11.2058ZM21.2317 2.94975C22.2984 2.79779 23.7206 3.6082 23.873 4.57057C24.0762 5.93813 22.1968 7.2044 21.3333 7.76156C20.0635 8.62262 18.8444 9.07847 17.6762 9.78758C18.0825 7.91351 18.946 3.25365 21.2317 2.94975ZM9.75238 7.91351C8.63492 7.15375 6.50159 5.68488 6.55238 4.01341C6.60317 2.18999 9.44762 0.721116 10.9714 2.08868C12.9016 3.76016 13.8159 7.66026 14.527 10.3954C12.9016 9.58498 11.3778 8.97717 9.75238 7.91351ZM12.7492 36.4805H3.04762V19.7658H12.7492V36.4805ZM12.7492 18.2462H1.52381V12.7253H12.7492V18.2462ZM17.8286 36.4805H14.2222V12.7253H17.8286V36.4805ZM29.0032 36.4805H19.3524V19.7658H29.054V36.4805H29.0032ZM30.4762 18.2462H19.3524V12.7253H30.4762V18.2462Z" fill="#81B3D2"/>
</symbol>

<symbol id="icon-house" width="78" height="72" viewBox="0 0 78 72" fill="none">
<path d="M30.8784 64.9389H47.3768V41.1709H30.8784V64.9389ZM44.3865 62.0549H33.8688V44.0549H44.2834V62.0549H44.3865Z" fill="#81B3D2"/>
<path d="M75.3211 39.1823L77.4865 37.0939L67.2781 27.2486V0.39779H53.0482V13.5249L38.9214 0L0.459473 37.1934L2.62489 39.2818L10.6679 31.5249V69.116H6.64638V72H72.537V69.116H67.2781V31.4254L75.3211 39.1823ZM56.0385 3.38122H64.1846V24.3646L56.0385 16.5083V3.38122ZM64.2878 69.0166H13.7613V28.5414L38.9214 4.1768L64.1846 28.5414V69.0166H64.2878Z" fill="#81B3D2"/>
<path d="M31.1879 27.0491C31.1879 31.3253 34.7969 34.806 39.1277 34.806C43.5617 34.806 47.1707 31.3253 47.1707 27.0491C47.1707 22.7728 43.5617 19.3916 39.1277 19.3916C34.6938 19.3916 31.1879 22.7728 31.1879 27.0491ZM39.1277 22.0767C41.9118 22.0767 44.2835 24.2645 44.2835 27.0491C44.2835 29.7341 42.015 32.0214 39.1277 32.0214C36.3436 32.0214 33.972 29.8336 33.972 27.0491C33.972 24.364 36.3436 22.0767 39.1277 22.0767Z" fill="#81B3D2"/>
<path d="M20.9794 41.1709H17.8859V45.0493H20.9794V41.1709Z" fill="#81B3D2"/>
<path d="M27.0631 41.1709H23.9697V45.0493H27.0631V41.1709Z" fill="#81B3D2"/>
<path d="M20.9794 47.1387H17.8859V51.0171H20.9794V47.1387Z" fill="#81B3D2"/>
<path d="M27.0631 47.1387H23.9697V51.0171H27.0631V47.1387Z" fill="#81B3D2"/>
<path d="M53.8731 41.1709H50.7797V45.0493H53.8731V41.1709Z" fill="#81B3D2"/>
<path d="M60.06 41.1709H56.9666V45.0493H60.06V41.1709Z" fill="#81B3D2"/>
<path d="M53.8731 47.1387H50.7797V51.0171H53.8731V47.1387Z" fill="#81B3D2"/>
<path d="M60.06 47.1387H56.9666V51.0171H60.06V47.1387Z" fill="#81B3D2"/>
</symbol>

<symbol id="icon-like" width="23" height="21" viewBox="0 0 23 21" fill="none">
<path opacity="0.3" d="M12.9636 3.78L12.3364 6.825L11.7091 9.45H14.3227H20.8045V11.55C20.8045 11.55 20.8045 11.55 20.8045 11.655L17.7727 18.9H8.36364V8.4L12.9636 3.78ZM2.09091 10.5V18.9V10.5ZM13.8 0L6.9 6.93C6.48182 7.245 6.27273 7.77 6.27273 8.4V18.9C6.27273 20.055 7.21364 21 8.36364 21H17.7727C18.6091 21 19.3409 20.475 19.6545 19.74L22.7909 12.285C22.8955 12.075 22.8955 11.76 22.8955 11.55V9.45H23C23 8.295 22.0591 7.35 20.9091 7.35H14.3227L15.3682 2.52V2.205C15.3682 1.785 15.1591 1.365 14.95 1.05L13.8 0ZM4.18182 8.4H0V21H4.18182V8.4Z" fill="black"/>
</symbol>

<symbol id="icon-like-white" width="23" height="21" viewBox="0 0 23 21" fill="none">
<path d="M12.9636 3.78L12.3364 6.825L11.7091 9.45H14.3227H20.8045V11.55C20.8045 11.55 20.8045 11.55 20.8045 11.655L17.7727 18.9H8.36364V8.4L12.9636 3.78ZM2.09091 10.5V18.9V10.5ZM13.8 0L6.9 6.93C6.48182 7.245 6.27273 7.77 6.27273 8.4V18.9C6.27273 20.055 7.21364 21 8.36364 21H17.7727C18.6091 21 19.3409 20.475 19.6545 19.74L22.7909 12.285C22.8955 12.075 22.8955 11.76 22.8955 11.55V9.45H23C23 8.295 22.0591 7.35 20.9091 7.35H14.3227L15.3682 2.52V2.205C15.3682 1.785 15.1591 1.365 14.95 1.05L13.8 0ZM4.18182 8.4H0V21H4.18182V8.4Z" fill="white"/>
</symbol>

</svg>
