<svg xmlns="http://www.w3.org/2000/svg"><style>:root svg:not(:target){display:none}</style><svg viewBox="0 0 40 36" fill="none" id="icon-burger"><path d="M37.7428 23.8505H2.25722C0.997375 23.8505 0 24.8635 0 26.0285V27.8014C0 28.9664 0.997375 29.9288 2.25722 29.9288H2.78215V30.4354C2.78215 33.2213 5.14436 35.45 7.979 35.45H32.021C34.9081 35.45 37.2178 33.1706 37.2178 30.4354V29.9288H37.7428C38.9501 29.9288 40 28.9664 40 27.7508V25.9779C40 24.8635 39.0026 23.8505 37.7428 23.8505ZM35.6955 30.4354C35.6955 32.3602 34.0682 33.9304 32.0735 33.9304H7.92651C5.93176 33.9304 4.30446 32.3602 4.30446 30.4354V29.9288H35.6955V30.4354ZM38.4252 27.7508C38.4252 28.1053 38.1102 28.4092 37.7428 28.4092H2.25722C1.88976 28.4092 1.5748 28.1053 1.5748 27.7508V25.9779C1.5748 25.674 1.88976 25.3701 2.25722 25.3701H37.7953C38.1627 25.3701 38.4777 25.674 38.4777 26.0285V27.7508H38.4252Z" fill="#81B3D2"></path><path d="M8.50395 19.7473L11.3386 21.7735L14.2257 19.7473L17.1129 21.7735L20 19.7473L22.8347 21.7735L25.7218 19.7473L28.6089 21.7735L31.4961 19.7473L34.3832 21.7735L37.6903 19.3928L36.7979 18.1771L34.3832 19.8486L31.4961 17.8225L28.6089 19.8486L25.7218 17.8225L22.8347 19.8486L20 17.8225L17.1129 19.8486L14.2257 17.8225L11.3386 19.8486L8.50395 17.8225L5.61682 19.8486L3.20212 18.1771L2.25723 19.3928L5.61682 21.7735L8.50395 19.7473Z" fill="#81B3D2"></path><path d="M37.2179 16.3032C37.2179 15.9993 37.2704 14.9862 37.2179 14.7836C36.8504 6.88169 29.2913 0.550049 20 0.550049C10.7087 0.550049 3.09712 6.88169 2.72967 14.7836C2.72967 14.9862 2.72967 15.9993 2.72967 16.3032H37.2179ZM20 2.06964C28.399 2.06964 35.3281 7.74279 35.6431 14.7836H4.30447C4.67193 7.74279 11.6011 2.06964 20 2.06964Z" fill="#81B3D2"></path><path d="M20 9.16113C20.5798 9.16113 21.0499 8.70757 21.0499 8.14807C21.0499 7.58857 20.5798 7.13501 20 7.13501C19.4202 7.13501 18.9501 7.58857 18.9501 8.14807C18.9501 8.70757 19.4202 9.16113 20 9.16113Z" fill="#81B3D2"></path><path d="M15.8005 6.67871C16.3803 6.67871 16.8504 6.22515 16.8504 5.66565C16.8504 5.10615 16.3803 4.65259 15.8005 4.65259C15.2207 4.65259 14.7506 5.10615 14.7506 5.66565C14.7506 6.22515 15.2207 6.67871 15.8005 6.67871Z" fill="#81B3D2"></path><path d="M24.1995 6.67871C24.7793 6.67871 25.2493 6.22515 25.2493 5.66565C25.2493 5.10615 24.7793 4.65259 24.1995 4.65259C23.6196 4.65259 23.1496 5.10615 23.1496 5.66565C23.1496 6.22515 23.6196 6.67871 24.1995 6.67871Z" fill="#81B3D2"></path></svg><svg viewBox="0 0 29 35" fill="none" id="icon-copyright"><path d="M14.65 0.449951H14.55L1.05 1.84995V26.55L14.55 34.5499L27.95 26.55V1.84995L14.65 0.449951ZM26.05 12.55L14.55 5.74995V5.64995H14.45L14.35 5.54995V5.64995L2.95 12.55V3.54995L14.45 2.34995L26.05 3.54995V12.55ZM14.45 7.24995L25.95 13.95L21.45 16.55L14.35 12.35V13.75L20.25 17.25L19.35 17.75L14.35 14.75V16.15L18.15 18.45L17.35 18.95L14.35 17.15V18.55L16.25 19.65L14.45 20.75L3.05 14.05L14.45 7.24995ZM2.95 15.55L14.35 22.35V23.35L6.45 18.65V20.05L14.45 24.85V25.95L6.45 21.25V22.65L14.45 27.45L22.55 22.55V17.35L25.95 15.35V25.35L14.45 32.25L2.95 25.45V15.55Z" fill="currentColor"></path></svg><svg viewBox="0 0 32 38" fill="none" id="icon-gift"><path d="M30.5778 11.2058H30.527H18.1841C25.0921 7.76156 25.6508 5.58358 25.3968 4.36796C24.8381 2.39259 22.5524 0.873068 20.419 1.68348C17.6254 2.74714 16.8635 6.9005 16.1016 9.88889C15.1365 6.84985 14.2222 3.0004 12.0381 1.02502C11.4286 0.467863 10.5143 -0.0892942 9.14286 0.0120071C7.11111 0.21461 4.21587 2.69649 5.43492 5.48228C6.55238 8.16676 10.2603 9.88888 12.7492 11.2565H1.42222C0.609524 11.2565 0 11.9149 0 12.6747V18.3475C0 19.158 0.660317 19.7658 1.42222 19.7658H1.5746V38H30.527V19.7658H30.5778C31.3905 19.7658 32 19.1073 32 18.3475V12.6747C32 11.8643 31.3397 11.2058 30.5778 11.2058ZM21.2317 2.94975C22.2984 2.79779 23.7206 3.6082 23.873 4.57057C24.0762 5.93813 22.1968 7.2044 21.3333 7.76156C20.0635 8.62262 18.8444 9.07847 17.6762 9.78758C18.0825 7.91351 18.946 3.25365 21.2317 2.94975ZM9.75238 7.91351C8.63492 7.15375 6.50159 5.68488 6.55238 4.01341C6.60317 2.18999 9.44762 0.721116 10.9714 2.08868C12.9016 3.76016 13.8159 7.66026 14.527 10.3954C12.9016 9.58498 11.3778 8.97717 9.75238 7.91351ZM12.7492 36.4805H3.04762V19.7658H12.7492V36.4805ZM12.7492 18.2462H1.52381V12.7253H12.7492V18.2462ZM17.8286 36.4805H14.2222V12.7253H17.8286V36.4805ZM29.0032 36.4805H19.3524V19.7658H29.054V36.4805H29.0032ZM30.4762 18.2462H19.3524V12.7253H30.4762V18.2462Z" fill="#81B3D2"></path></svg><svg viewBox="0 0 78 72" fill="none" id="icon-house"><path d="M30.8784 64.9389H47.3768V41.1709H30.8784V64.9389ZM44.3865 62.0549H33.8688V44.0549H44.2834V62.0549H44.3865Z" fill="#81B3D2"></path><path d="M75.3211 39.1823L77.4865 37.0939L67.2781 27.2486V0.39779H53.0482V13.5249L38.9214 0L0.459473 37.1934L2.62489 39.2818L10.6679 31.5249V69.116H6.64638V72H72.537V69.116H67.2781V31.4254L75.3211 39.1823ZM56.0385 3.38122H64.1846V24.3646L56.0385 16.5083V3.38122ZM64.2878 69.0166H13.7613V28.5414L38.9214 4.1768L64.1846 28.5414V69.0166H64.2878Z" fill="#81B3D2"></path><path d="M31.1879 27.0491C31.1879 31.3253 34.7969 34.806 39.1277 34.806C43.5617 34.806 47.1707 31.3253 47.1707 27.0491C47.1707 22.7728 43.5617 19.3916 39.1277 19.3916C34.6938 19.3916 31.1879 22.7728 31.1879 27.0491ZM39.1277 22.0767C41.9118 22.0767 44.2835 24.2645 44.2835 27.0491C44.2835 29.7341 42.015 32.0214 39.1277 32.0214C36.3436 32.0214 33.972 29.8336 33.972 27.0491C33.972 24.364 36.3436 22.0767 39.1277 22.0767Z" fill="#81B3D2"></path><path d="M20.9794 41.1709H17.8859V45.0493H20.9794V41.1709Z" fill="#81B3D2"></path><path d="M27.0631 41.1709H23.9697V45.0493H27.0631V41.1709Z" fill="#81B3D2"></path><path d="M20.9794 47.1387H17.8859V51.0171H20.9794V47.1387Z" fill="#81B3D2"></path><path d="M27.0631 47.1387H23.9697V51.0171H27.0631V47.1387Z" fill="#81B3D2"></path><path d="M53.8731 41.1709H50.7797V45.0493H53.8731V41.1709Z" fill="#81B3D2"></path><path d="M60.06 41.1709H56.9666V45.0493H60.06V41.1709Z" fill="#81B3D2"></path><path d="M53.8731 47.1387H50.7797V51.0171H53.8731V47.1387Z" fill="#81B3D2"></path><path d="M60.06 47.1387H56.9666V51.0171H60.06V47.1387Z" fill="#81B3D2"></path></svg><svg viewBox="0 0 23 21" fill="none" id="icon-like-white"><path d="M12.9636 3.78L12.3364 6.825L11.7091 9.45H14.3227H20.8045V11.55C20.8045 11.55 20.8045 11.55 20.8045 11.655L17.7727 18.9H8.36364V8.4L12.9636 3.78ZM2.09091 10.5V18.9V10.5ZM13.8 0L6.9 6.93C6.48182 7.245 6.27273 7.77 6.27273 8.4V18.9C6.27273 20.055 7.21364 21 8.36364 21H17.7727C18.6091 21 19.3409 20.475 19.6545 19.74L22.7909 12.285C22.8955 12.075 22.8955 11.76 22.8955 11.55V9.45H23C23 8.295 22.0591 7.35 20.9091 7.35H14.3227L15.3682 2.52V2.205C15.3682 1.785 15.1591 1.365 14.95 1.05L13.8 0ZM4.18182 8.4H0V21H4.18182V8.4Z" fill="white"></path></svg><svg viewBox="0 0 23 21" fill="none" id="icon-like"><path opacity="0.3" d="M12.9636 3.78L12.3364 6.825L11.7091 9.45H14.3227H20.8045V11.55C20.8045 11.55 20.8045 11.55 20.8045 11.655L17.7727 18.9H8.36364V8.4L12.9636 3.78ZM2.09091 10.5V18.9V10.5ZM13.8 0L6.9 6.93C6.48182 7.245 6.27273 7.77 6.27273 8.4V18.9C6.27273 20.055 7.21364 21 8.36364 21H17.7727C18.6091 21 19.3409 20.475 19.6545 19.74L22.7909 12.285C22.8955 12.075 22.8955 11.76 22.8955 11.55V9.45H23C23 8.295 22.0591 7.35 20.9091 7.35H14.3227L15.3682 2.52V2.205C15.3682 1.785 15.1591 1.365 14.95 1.05L13.8 0ZM4.18182 8.4H0V21H4.18182V8.4Z" fill="black"></path></svg><svg viewBox="0 0 1200 57" fill="none" id="intro-triangle"><path d="M249.6 23.7L0 0V57H249.6H600L249.6 0V23.7Z" fill="white"></path><path d="M950.4 23.7V0L600 57H950.4H1199.9V0L950.4 23.7Z" fill="white"></path></svg><svg viewBox="0 0 58 58" fill="none" id="mail"><rect width="58" height="58" fill="#E6E6E6"></rect><path d="M29 31C28.7 31 28.5 30.9 28 30.7L21 27V34C21 34.5 21.5 35 22 35H36C36.5 35 37 34.5 37 34V27L30 30.7C29.5 30.9 29.3 31 29 31ZM36 23H22C21.5 23 21 23.5 21 24V24.8L29 29L37 24.8V24C37 23.5 36.5 23 36 23Z" fill="black"></path></svg><svg viewBox="0 0 58 58" fill="none" id="phone"><rect width="58" height="58" fill="#E6E6E6"></rect><path d="M23.6 27.8C25 30.6 27.4 32.9 30.2 34.4L32.4 32.2C32.7 31.9 33.1 31.8 33.4 32C34.5 32.4 35.7 32.6 37 32.6C37.6 32.6 38 33 38 33.6V37C38 37.6 37.6 38 37 38C27.6 38 20 30.4 20 21C20 20.4 20.4 20 21 20H24.5C25.1 20 25.5 20.4 25.5 21C25.5 22.2 25.7 23.4 26.1 24.6C26.2 24.9 26.1 25.3 25.9 25.6L23.6 27.8Z" fill="#010101"></path></svg><svg viewBox="0 0 21 18" fill="none" id="social-tg"><path d="M20.9393 1.62225L17.7705 16.566C17.5313 17.6205 16.908 17.883 16.0223 17.3865L11.1938 13.8285L8.86425 16.0695C8.60626 16.3275 8.391 16.5428 7.89375 16.5428L8.241 11.6258L17.1893 3.54C17.5785 3.1935 17.1045 3.00075 16.5848 3.348L5.52225 10.314L0.759755 8.823C-0.275994 8.49975 -0.294744 7.78725 0.975756 7.29L19.6035 0.113253C20.466 -0.209997 21.2205 0.305253 20.9393 1.623V1.62225Z" fill="white"></path></svg><svg viewBox="0 0 25 14" fill="none" id="social-vk"><path fill-rule="evenodd" clip-rule="evenodd" d="M23.95 0.948C24.116 0.402 23.95 0 23.155 0H20.53C19.862 0 19.554 0.347 19.387 0.73C19.387 0.73 18.052 3.926 16.161 6.002C15.549 6.604 15.271 6.795 14.937 6.795C14.77 6.795 14.519 6.604 14.519 6.057V0.948C14.519 0.292 14.335 0 13.779 0H9.651C9.234 0 8.983 0.304 8.983 0.593C8.983 1.214 9.929 1.358 10.026 3.106V6.904C10.026 7.737 9.873 7.888 9.539 7.888C8.649 7.888 6.484 4.677 5.199 1.003C4.95 0.288 4.698 0 4.027 0H1.4C0.65 0 0.5 0.347 0.5 0.73C0.5 1.412 1.39 4.8 4.645 9.281C6.815 12.341 9.87 14 12.653 14C14.322 14 14.528 13.632 14.528 12.997V10.684C14.528 9.947 14.686 9.8 15.215 9.8C15.605 9.8 16.272 9.992 17.83 11.467C19.61 13.216 19.903 14 20.905 14H23.53C24.28 14 24.656 13.632 24.44 12.904C24.202 12.18 23.352 11.129 22.225 9.882C21.613 9.172 20.695 8.407 20.416 8.024C20.027 7.533 20.138 7.314 20.416 6.877C20.416 6.877 23.616 2.451 23.949 0.948H23.95Z" fill="white"></path></svg><svg viewBox="0 0 20 14" fill="none" id="social-youtube"><path d="M17.1813 0H2.81331C1.30618 0 0 1.3 0 2.8V11.1C0 12.7 1.30618 14 2.81331 14H17.1813C18.7889 14 19.9946 12.7 19.9946 11.2V2.8C20.095 1.3 18.7889 0 17.1813 0ZM7.03326 10.4V3.6L13.8656 7L7.03326 10.4Z" fill="white"></path></svg><svg viewBox="0 0 22 16" fill="none" id="tick"><path d="M21.8053 1.30662L20.759 0.22188C20.4736 -0.0739599 19.9029 -0.0739599 19.6176 0.22188L8.29884 11.9569L2.40167 5.84283C2.11633 5.54699 1.54563 5.54699 1.26028 5.84283L0.21401 6.92758C-0.0713367 7.22342 -0.0713367 7.8151 0.21401 8.11094L7.63303 15.8028C7.82326 16 8.01349 16 8.20373 16C8.39396 16 8.58419 15.9014 8.77442 15.8028L21.615 2.48999C22.0906 2.19415 22.0906 1.70108 21.8053 1.30662Z" fill="#333333"></path></svg></svg>